<svg id="Layer_1" xmlns="http://www.w3.org/2000/svg" viewBox="0 0 1080 1080"><defs><style>.cls-1{fill:#fff}.cls-2{fill:#ef3f24}.cls-3{fill:#b7b5b5}.cls-4{fill:#22428e}.cls-5{fill:#223468}.cls-6{fill:#0b0c0f}.cls-7{fill:#436857}</style></defs><circle class="cls-1" cx="533.57" cy="540" r="495.37"/><path d="M82.58 475.11l9.92 1.17-2.69 22.86c-1.06 8.99 2.91 12.19 8.21 12.81l5.38.63 4.03-34.21 9.42 1.11-4.03 34.21 22.45 2.65-1.17 9.92-37.16-4.38c-11.35-1.34-18.89-8.19-17.12-23.24l2.77-23.54zm7.29-32.62l55.65 12.94-2.26 9.73-55.65-12.94 2.26-9.73zm62.99-14.72l-3.54 9.34-42.75-16.18c-6.97-2.64-10.14-8.36-6.99-16.68 2.82-7.44 7.88-9.33 14.81-9.24l40.03-2.68c1.51-.15 2.85-.82 3.51-2.57.75-1.98.01-3.62-1.81-4.31l-42.28-16 3.57-9.42 42.67 16.15c7.05 2.67 10.19 8.47 7.07 16.71-2.82 7.44-7.91 9.41-14.84 9.32l-40.03 2.68c-1.85.11-2.93.79-3.56 2.46-.81 2.14-.04 3.7 1.86 4.41l42.28 16zm.03-130.65l8.57 5.13-15.03 25.14c-2.65 4.43-1.43 7.83 1.99 9.87 2.98 1.78 6.72 1.95 10.16-3.79l6.86-11.48c7.99-13.37 17.27-12.06 24.32-7.85 8.28 4.95 11.74 13.03 5.05 24.22l-16.33 27.32-8.57-5.13 16.51-27.61c2.78-4.65 1.5-8.28-2.06-10.4-3.2-1.91-7.1-1.98-10.71 4.05L166.83 338c-7.82 13.08-16.98 11.74-23.81 7.66-8.14-4.87-11.49-12.79-4.97-23.69l14.86-24.85zm52.48-74.56c6.81-6.95 14.61-5.6 20.29-.03 4.6 4.5 5.55 9.7 2.88 17.87l-1.8 5.59 15.33.92-1.92-12.31 7.4-7.56 3.08 20.32 19.11 1.06-8 8.16-10-.55c.63 8.79-1.55 12.35-5.69 16.58l-6.75 6.89c-5.74 5.87-13.99 7.39-21.91-.37-5.32-5.21-6.03-10.29-1.67-22.61l.87-2.46-4.55-.31c-4.31-.19-8.4-1.47-12.02-5.02-5.68-5.57-6.79-13.76-.21-20.47l5.57-5.68zm9.75 22.7l4.37.25 1.86-5.53c1.57-4.5 1.6-7.56-1.31-10.4-2.66-2.61-6.2-3.59-9.46-.26l-3.55 3.63c-3.2 3.27-2.38 6.79.4 9.51 2.18 2.13 4.4 2.65 7.69 2.79zm28.12 10.24l-19.34-1.05-.93 2.88c-2.72 8.47-2.76 11.28.15 14.12 3.63 3.55 8.06 3.87 11.32.54l5.45-5.56c2.72-2.78 3.77-5.43 3.36-10.93zM310 150.4l5.37 8.42-19.42 12.37c-7.64 4.87-7.6 9.96-4.74 14.46l2.91 4.57 29.05-18.52 5.09 8-29.05 18.51 12.14 19.06-8.42 5.37-20.11-31.55c-6.14-9.64-5.6-19.82 7.18-27.96l19.99-12.74zm64.12-30.2l4.01 9.15-26.2 11.49c-5.51 2.41-6.79 6.03-5.02 10.06 1.87 4.26 5.43 5.01 10.71 2.7l25.74-11.29 3.64 8.3L361.03 162c-5.27 2.31-7.07 5.6-5.2 9.86 1.8 4.11 5.45 5.47 10.8 3.12l26.51-11.63 4.01 9.15-26.51 11.63c-12.4 5.44-20.13 1.53-23.7-6.61-2.62-5.97-1.67-11.19 2.25-15.32-5.77.13-10.02-2.82-12.53-8.55-3.67-8.37-1.06-16.54 11.26-21.95l26.2-11.49zm44.97 45.03l-10.67 2.69 7.05-54.15c.75-5.69 4.03-8.61 9.86-10.08 5.75-1.45 10.02-.43 13.29 4.25l31.12 44.54-10.75 2.71-28.05-40.34c-.82-1.19-1.87-1.54-3.18-1.21-1.31.33-2.07 1.13-2.32 2.59l-6.34 49zm90.73-74.05l1.07 9.93-16.58 1.79 5.05 46.88-10.01 1.08-5.05-46.88-16.58 1.79-1.07-9.93 43.18-4.65zm41.88-.36l-1.43 23.23 29.15 1.79 1.43-23.23 10.05.62-3.51 57.03-10.05-.62 1.47-23.83-29.15-1.79-1.46 23.83-9.97-.61 3.51-57.03 9.97.61zm110.98 16.55l-2.2 9.74-27.91-6.31c-5.86-1.33-9.04.82-10.01 5.11-1.03 4.54 1.4 7.26 7.01 8.53l27.41 6.2-2 8.84-27.66-6.25c-5.62-1.27-9.01.31-10.04 4.85-.99 4.38 1.14 7.64 6.84 8.92l28.24 6.38-2.2 9.74-28.24-6.38c-13.21-2.99-17.1-10.72-15.14-19.39 1.44-6.36 5.3-10 10.9-10.99-4.72-3.32-6.39-8.21-5.01-14.32 2.02-8.92 8.97-13.94 22.1-10.98l27.91 6.31zm54.09 19.36c11.95 4.78 14.1 14.21 10.7 22.7-2.64 6.6-8.62 12.42-17.62 11.46l3.85 26.16-10.3-4.12-3.89-25.36-13.83-5.54c-.87-.35-1.49-.14-1.87.8l-7.68 19.18-9.27-3.71 8.4-20.98c2.39-5.97 5.88-7.4 11.7-5.08l20.67 8.27c5.27 2.11 8.84-.66 10.35-4.43 1.51-3.77.52-7.91-4.59-9.95l-29.08-11.64 3.71-9.27 28.77 11.51zm77.12 40.87l-5.15 8.56-25.11-15.09c-4.43-2.66-7.83-1.44-9.87 1.97-1.79 2.97-1.96 6.72 3.77 10.17l11.46 6.89c13.35 8.02 12.03 17.3 7.8 24.34-4.97 8.27-13.06 11.71-24.23 4.99l-27.28-16.39 5.15-8.56L758 201.05c4.64 2.79 8.27 1.52 10.41-2.04 1.92-3.19 1.99-7.1-4.03-10.72l-11.39-6.85c-13.06-7.85-11.71-17.01-7.61-23.83 4.88-8.13 12.81-11.46 23.7-4.92l24.82 14.91z" stroke="#1a457b" stroke-miterlimit="10" stroke-width="4.7" fill="#1a457b"/><circle class="cls-5" cx="544.97" cy="552.61" r="376.44"/><path d="M389.02 968.65c-1.84-1.91-3.03-4.15-3.55-6.7-.53-2.55-.33-5.22.59-8.01l3.34-10.13c.92-2.79 2.35-5.04 4.28-6.76 1.93-1.72 4.21-2.8 6.83-3.24 2.62-.44 5.4-.18 8.33.79 2.86.94 5.23 2.35 7.11 4.22 1.88 1.87 3.12 3.97 3.71 6.31.6 2.34.52 4.65-.24 6.93-.19.57-.62.75-1.3.52l-7.98-2.63c-.68-.22-.99-.42-.93-.6l.07-.21c.39-1.18.3-2.34-.25-3.47-.56-1.14-1.57-1.94-3.03-2.43-1.43-.47-2.73-.38-3.9.29-1.17.66-2.01 1.78-2.53 3.35l-3.54 10.72c-.51 1.54-.43 2.95.24 4.24.67 1.29 1.73 2.17 3.19 2.66 1.32.44 2.52.43 3.6-.03 1.08-.46 1.83-1.33 2.26-2.61l.18-.54c.09-.29 0-.48-.29-.57l-4.34-1.43c-.68-.22-.91-.67-.68-1.35l1.98-6c.22-.68.67-.91 1.35-.68l13.56 4.47c.68.22.91.67.68 1.35l-2.35 7.13c-.87 2.64-2.27 4.8-4.18 6.46-1.92 1.67-4.18 2.7-6.79 3.11-2.61.41-5.36.13-8.26-.82-2.93-.97-5.32-2.41-7.16-4.32zm61.33 16.88c-2.1-1.57-3.6-3.52-4.47-5.86-.87-2.34-1.06-4.9-.55-7.67l4.42-24.32c.13-.7.54-.99 1.25-.86l8.33 1.51c.7.13.99.54.86 1.25l-4.42 24.32c-.28 1.52-.06 2.81.64 3.87s1.78 1.73 3.22 1.99c1.41.26 2.63 0 3.67-.77s1.69-1.89 1.96-3.37l4.42-24.32c.13-.7.54-.99 1.25-.86l8.33 1.52c.7.13.99.54.86 1.25l-4.42 24.32c-.5 2.78-1.58 5.11-3.22 6.99-1.64 1.88-3.72 3.19-6.22 3.92-2.5.73-5.26.82-8.25.28-3-.55-5.55-1.6-7.65-3.17zm55.73 7.83l2.37-37.28c.05-.71.43-1.05 1.14-1l8.45.54c.71.05 1.05.43 1 1.14l-2.37 37.28c-.05.71-.43 1.05-1.14 1l-8.45-.54c-.71-.04-1.05-.42-1-1.14zm43.64 1.42l-1.99-37.31c-.04-.71.3-1.09 1.01-1.13l14.26-.76c3.04-.16 5.77.22 8.17 1.15 2.4.93 4.3 2.31 5.68 4.16s2.14 4.03 2.27 6.55l.75 14.09c.13 2.52-.39 4.77-1.56 6.75-1.17 1.98-2.91 3.56-5.2 4.74-2.29 1.18-4.96 1.85-8 2.01l-14.26.76c-.71.04-1.09-.3-1.13-1.01zm10.62-8.59l4.68-.25c1.28-.07 2.3-.62 3.08-1.66.77-1.04 1.14-2.37 1.09-3.99l-.56-10.48c-.09-1.62-.57-2.9-1.45-3.85-.88-.95-2-1.39-3.35-1.32l-4.62.25c-.3.02-.44.18-.43.48l1.09 20.4c.02.3.17.44.48.43zm74.57-31.22l-16.18 3.12c-.29.06-.41.23-.36.53l.94 4.88c.06.3.23.41.53.36l9.86-1.9c.7-.14 1.12.15 1.25.85l1.3 6.76c.14.7-.15 1.12-.85 1.25l-9.86 1.9c-.3.06-.42.23-.36.53l1.05 5.43c.06.3.23.42.53.36l16.18-3.12c.7-.14 1.12.15 1.26.85l1.31 6.82c.14.7-.15 1.12-.85 1.25l-25.99 5.01c-.7.13-1.12-.15-1.25-.85l-7.07-36.68c-.14-.7.15-1.12.85-1.26l25.99-5.01c.7-.14 1.12.15 1.26.85l1.31 6.82c.14.7-.15 1.12-.85 1.25zm81.24 4.56c-2.55-.01-4.8-.64-6.74-1.88-1.94-1.24-3.42-3.02-4.43-5.33l-.23-.52c-.29-.65-.1-1.13.55-1.41l7.6-3.33c.65-.29 1.06-.26 1.21.09l.25.57c.41.93 1.28 1.56 2.61 1.88 1.33.32 2.76.15 4.27-.52 1.27-.56 2.07-1.23 2.39-2 .32-.78.33-1.49.05-2.15-.33-.76-.93-1.18-1.78-1.25-.86-.08-2.32 0-4.38.26l-1.68.24c-3.86.46-7.33.34-10.39-.37-3.06-.71-5.31-2.7-6.75-5.97-.95-2.17-1.21-4.35-.77-6.53.44-2.19 1.48-4.17 3.14-5.97 1.66-1.8 3.76-3.25 6.31-4.37 2.69-1.18 5.34-1.75 7.97-1.71 2.63.04 4.97.7 7.03 1.97 2.06 1.27 3.6 3.08 4.63 5.43l.11.26c.29.66.1 1.13-.55 1.41l-7.6 3.33c-.65.29-1.04.29-1.16.02l-.18-.41c-.45-1.03-1.33-1.77-2.63-2.2-1.3-.44-2.74-.31-4.33.39-1.1.48-1.87 1.09-2.31 1.82-.44.73-.49 1.49-.14 2.28.27.62.74 1.04 1.39 1.27.66.23 1.55.33 2.69.3 1.14-.03 2.84-.17 5.11-.43.32-.02 1.7-.18 4.13-.49 2.43-.31 4.74.06 6.92 1.09 2.18 1.04 3.79 2.74 4.83 5.12.98 2.24 1.26 4.46.83 6.66-.43 2.2-1.5 4.23-3.22 6.07-1.72 1.84-3.96 3.37-6.71 4.58-2.79 1.22-5.46 1.83-8.01 1.82zm58.62-64.05l-14.05 8.6c-.26.16-.31.36-.15.62l2.59 4.24c.16.26.36.31.62.15l8.57-5.25c.61-.37 1.1-.25 1.47.36l3.59 5.87c.37.61.26 1.1-.35 1.48l-8.57 5.24c-.26.16-.31.36-.15.62l2.89 4.72c.16.26.36.31.62.15l14.05-8.6c.61-.37 1.1-.25 1.47.36l3.62 5.92c.37.61.25 1.1-.35 1.47l-22.58 13.82c-.61.37-1.1.25-1.47-.35l-19.5-31.86c-.37-.61-.26-1.1.35-1.47l22.57-13.82c.61-.37 1.1-.25 1.47.36l3.62 5.92c.37.61.25 1.1-.36 1.47zm58.12-6.46l-13.6-7.05c-.2-.13-.42-.1-.65.09l-1.58 1.28c-.23.19-.26.4-.07.63l8.62 10.59c.45.56.4 1.06-.15 1.51l-6.56 5.34c-.55.45-1.06.4-1.51-.16l-23.59-28.97c-.45-.55-.4-1.06.15-1.51l13.09-10.65c1.98-1.62 4.06-2.62 6.23-3.03 2.17-.41 4.27-.21 6.3.58 2.03.8 3.83 2.16 5.4 4.08 1.54 1.9 2.44 3.93 2.68 6.11.24 2.18-.17 4.28-1.23 6.31-.13.25-.07.45.18.58l14.53 6.94c.15.07.3.19.44.37.29.35.19.72-.27 1.1l-6.96 5.67c-.47.38-.95.44-1.46.17zm-25.51-16.85l3.95 4.86c.19.23.4.26.64.07l3.98-3.24c.93-.76 1.48-1.63 1.65-2.62.17-.99-.08-1.89-.75-2.7-.69-.85-1.53-1.29-2.53-1.32-1-.03-1.97.33-2.9 1.09l-3.98 3.24c-.23.19-.26.4-.07.64zm63.88-19.06l-34.88-17.46a1.1 1.1 0 01-.33-.23c-.38-.36-.36-.77.08-1.24l6.27-6.73c.44-.47.94-.54 1.51-.21l20.66 11.77c.19.07.33.06.42-.04.09-.1.08-.22-.03-.38l-13.31-19.65c-.39-.52-.36-1.03.11-1.52l6.12-6.57c.26-.28.52-.4.79-.39.27.02.5.2.7.53l19.79 33.64c.31.55.25 1.06-.19 1.52l-6.19 6.65c-.44.47-.94.57-1.51.29zm35.35-42.03l-30.18-22.02c-.58-.42-.66-.92-.23-1.5l4.99-6.84c.42-.58.92-.66 1.5-.23l30.18 22.02c.58.42.66.92.23 1.5l-4.99 6.84c-.42.58-.92.66-1.5.24zm27.77-42.25c-2.2 1.46-4.58 2.21-7.14 2.26-2.56.05-5.09-.63-7.62-2.05l-9.93-5.59c-2.49-1.4-4.37-3.2-5.64-5.41-1.26-2.2-1.84-4.62-1.74-7.26.1-2.64.91-5.3 2.43-7.99 1.51-2.69 3.34-4.78 5.48-6.28 2.14-1.49 4.42-2.3 6.84-2.43 2.42-.12 4.82.48 7.18 1.81.29.17.31.56.04 1.19l-3.66 7.65-.14.25c-.28.49-.5.69-.66.6l-.29-.17c-1.34-.76-2.64-.97-3.89-.63-1.24.33-2.24 1.16-2.98 2.47-.74 1.31-.93 2.59-.57 3.83.36 1.24 1.21 2.24 2.56 2.99l10.57 5.95c1.31.74 2.59.94 3.84.61 1.25-.33 2.24-1.16 2.98-2.47.74-1.31.93-2.59.57-3.82-.36-1.24-1.2-2.23-2.51-2.97-.16-.09-.25-.26-.27-.51-.01-.24.08-.51.28-.78l4.55-7.15c.37-.57.61-.82.74-.75l.25.14c2.36 1.33 4.12 3.07 5.29 5.21 1.17 2.15 1.67 4.53 1.52 7.14-.15 2.61-.99 5.26-2.5 7.95-1.51 2.69-3.37 4.76-5.57 6.22zm8.71-86.62l-6.05 15.33c-.11.28-.03.48.25.59l4.62 1.82c.28.11.48.03.58-.26l3.69-9.34c.26-.66.73-.86 1.39-.6l6.4 2.53c.67.26.87.73.6 1.39l-3.69 9.34c-.11.28-.03.48.25.59l5.14 2.03c.28.11.48.03.58-.26l6.05-15.33c.26-.66.73-.86 1.39-.6l6.46 2.55c.67.26.87.73.6 1.39L961.63 718c-.26.67-.73.86-1.39.6l-34.75-13.72c-.66-.26-.87-.73-.6-1.39l9.72-24.62c.26-.67.73-.87 1.39-.6l6.46 2.55c.67.26.86.73.6 1.39z" fill="#1a457b"/><path class="cls-1" d="M808.62 584.96c27.75 50.09 47.87 118.6 10.46 169-19.85 26.98-52.82 40.93-85.05 45.67-12.86 1.96-25.84 2.69-38.76 2.54v-5.61c12.66-.19 25.29-1.24 37.67-3.48 30.22-5.32 60.77-18.84 78.69-44.54 18.28-25.14 20.04-58.32 13.34-87.9-5.44-24.18-15.73-47.27-28.38-68.85l12.03-6.85zm-542.09-38.29c-25.37-41.83-46-92.73-33.47-142.17 17.58-65.11 86.48-84.87 146.92-83.13 27.38.54 54.74 4.82 81.3 11.33 21.71 5.29 43.08 12.26 63.9 20.29l-5.13 12.86c-20.17-8.19-40.84-15.36-61.89-20.89-43.88-11.44-90.88-17.49-135.64-7.81-63.88 14.23-95.34 61.75-83.37 126.12 5.24 28.63 17.24 55.57 31.96 80.65l-4.57 2.76z"/><path class="cls-2" d="M1034.73 364.83l-8.26 4.96a77.883 77.883 0 00-14.47 11.14c-16.32 15.97-71.55 62.74-196.81 107.75-154.21 55.41-301.74 65.42-301.74 65.42l-270.37 56.08-103.47 33.38s-28.37 9.68-21.36 16.69c7.01 7.01 38.77-6.13 77.47-14.41 38.69-8.28 142.17-24.97 142.17-24.97s213.62-34.05 223.64-34.71c10.01-.67 166.78-24.39 213.9-38.56L495.32 679.16S313.19 793.11 269.13 827.15c-44.06 34.05-77.58 55.41-73.51 62.42 4.08 7.01 44.8-27.04 44.8-27.04s204.51-125.57 240.33-138.85c35.82-13.29 283.72-128.84 312.42-143.53 28.71-14.69 150.87-90.79 200.94-148.2 42.23-48.43 48.37-52.2 47.65-63.42-.22-3.47-4.04-5.47-7.02-3.68z"/><path class="cls-1" d="M881.34 589.08c-.04 1.67-1.77 3.18-3.49 3.04-1.64-.13-3.01-1.6-2.97-3.19.05-1.7 1.74-3.2 3.46-3.06 1.54.12 3.04 1.73 3 3.21zm118.49.27c-.02 1.58-1.51 3.08-3.1 3.12-1.65.04-3.1-1.33-3.17-3-.07-1.82 1.44-3.36 3.22-3.27 1.66.08 3.07 1.54 3.05 3.15zm-806.39-53.48c-.02 1.58-1.51 3.08-3.1 3.12-1.65.04-3.1-1.33-3.17-3-.07-1.82 1.44-3.36 3.22-3.27 1.66.08 3.07 1.54 3.05 3.15zM59.63 413.94c-.02 1.58-1.51 3.08-3.1 3.12-1.65.04-3.1-1.33-3.17-3-.07-1.82 1.44-3.36 3.22-3.27 1.66.08 3.07 1.54 3.05 3.15zm109.13-26.18c-.02 1.58-1.51 3.08-3.1 3.12-1.65.04-3.1-1.33-3.17-3-.07-1.82 1.44-3.36 3.22-3.27 1.66.08 3.07 1.54 3.05 3.15zm108.92 67.32c-.02 1.58-1.51 3.08-3.1 3.12-1.65.04-3.1-1.33-3.17-3-.07-1.82 1.44-3.36 3.22-3.27 1.66.08 3.07 1.54 3.05 3.15zm445.91 293.01c1.67-.09 3.1 1.2 3.22 2.9.14 1.85-1.27 3.4-3.08 3.39-1.65 0-3.05-1.4-3.09-3.08-.04-1.66 1.3-3.12 2.95-3.21zm73.56-11.51c-.07 1.74-1.37 3.01-3.08 3.03-1.87.01-3.31-1.46-3.19-3.26.12-1.62 1.62-2.97 3.26-2.91 1.65.06 3.08 1.55 3.01 3.14zm-404.2-384.95c-1.53.04-3.06-1.4-3.18-3-.13-1.7 1.4-3.43 3.07-3.45 1.65-.03 3.28 1.67 3.22 3.35-.06 1.53-1.59 3.06-3.11 3.1zm89.87-85.82c-.09 1.73-1.77 3.19-3.46 3.01-1.6-.17-2.91-1.69-2.84-3.29.08-1.74 1.72-3.17 3.45-2.99 1.62.17 2.93 1.66 2.85 3.27zm64-42.48c.02 1.58-1.36 2.99-3.01 3.09-1.89.11-3.32-1.2-3.33-3.03 0-1.64 1.31-3.06 2.94-3.16 1.7-.1 3.38 1.43 3.41 3.1zm67.27 23.4c-.09 1.6-1.61 3.03-3.2 3.01-1.8-.02-3.13-1.57-2.99-3.47.14-1.78 1.42-2.86 3.27-2.73 1.72.12 3.01 1.53 2.92 3.19zm-197-30.92c-.04 1.72-1.37 3.01-3.1 3.01-1.72 0-3.06-1.3-3.1-3.01-.05-1.86 1.42-3.27 3.28-3.18 1.72.09 2.97 1.44 2.92 3.18zm346.62 468.57c-.02-.34-.08-.67-.06-1.01.06-1.28-.39-2.74 1.56-3.2 1.89-.44 3.36-.16 4.2 1.19.98 1.57.77 2.98-.77 4.11-.17.13-.28.33-.42.5-1.88.54-3.35-.08-4.51-1.59zm-49-9.44c-.05 1.71-1.41 3.06-3.09 3.06-1.78 0-3.23-1.61-3.08-3.43.13-1.67 1.62-2.96 3.28-2.86 1.68.1 2.94 1.51 2.89 3.23zm31.7-22.27c.05-2.08.84-2.79 2.99-2.7 1.89.08 3.29 1.52 3.15 3.25-.13 1.6-1.65 3-3.2 2.95-1.72-.06-2.99-1.57-2.94-3.49zm-158.83-33.52c-.06 1.73-1.7 3.18-3.43 3.04-1.64-.14-2.93-1.58-2.88-3.22.05-1.77 1.65-3.2 3.4-3.04 1.61.15 2.96 1.64 2.91 3.23zm-17.23-13.06c.07 1.7-1.48 3.26-3.22 3.25a3.14 3.14 0 01-3.09-2.99c-.08-1.69 1.13-3.05 2.84-3.19 1.81-.15 3.41 1.19 3.48 2.93zm28.49-2.53c-1.62.08-3.15-1.27-3.28-2.9-.14-1.76 1.37-3.39 3.15-3.39 1.7 0 3.01 1.33 3.04 3.08.03 1.75-1.21 3.12-2.91 3.21z"/><path class="cls-6" d="M482.74 637.99c.63.19 1.26.36 1.92.38.11-.23.21-.47.32-.7-.72.18-1.47.28-2.24.32z"/><path class="cls-3" d="M311.21 670.08c.81-5.07 2.08-10.06 2.65-15.17.16-1.39 1.14-2.1 2.48-2.52 13.23-4.14 26.51-8.08 40.07-11.01 11.71-2.53 23.58-3.24 35.48-3.8 2.85-.13 5.69-.66 8.52-1.04.56-.08 1.14-.25 1.62-.53.74-.43 1.14-1.21 1.13-2.01 0-1.13-1.05-1.04-1.79-1.13-5.34-.66-10.68-1.41-16.04-1.87-7.99-.7-15.98-1.13-24.03-.43-7.92.68-15.58 2.62-23.34 4.08-1.11.21-2.18.73-3.34.28-.48-.14-.74-.47-.86-.95-3.41-12.83-6.45-25.74-6.5-39.12-.03-7.56.05-15.12.09-22.68 0-.8 0-1.61.12-2.4 1.5-9.71 2.5-19.52 5.61-28.91.28-.84.87-1.71-.14-2.48 7.5-7.77 13.33-16.9 20.44-25 6.42-7.32 11.94-15.38 16.78-23.87 1.36-2.39 2.98-4.62 4.48-6.93 7.51-11.57 12.92-23.99 15.34-37.63.32-1.78.45-3.59.7-5.69 1.9 1.51 3.82 2.64 6.06 3.23 4.26 1.13 7.67-.99 11.07-3.42.83.69.58-1.48 1.59-1.5.95.41 3.38 3.85 4.32 4.27 3.34 1.5 6.52 1.29 9.32-1.14 1.71-1.49 3-1.57 5.08-.31 4.78 2.88 11 1.95 14.88-2.04 1.37-1.4 2.24-1.34 3.76-.41 3.38 2.08 7.21 2.22 11.01 1.75 2.25-.28 4.19-1.45 4.81-3.86.43-1.66 1.33-2.18 2.97-2.06 1.48.1 2.98-.1 4.47-.12 2.41-.03 3.87-1.17 4.41-3.53.15-.67.45-1.32.5-2 .16-1.91 1.26-2.82 3.03-3.19 1.23-.26 2.48-.52 3.66-.94 5.37-1.92 8.66-5.62 8.91-11.43.1-2.25.92-3.13 2.97-3.81 6.22-2.05 8.34-5.1 8.03-11.53-.09-1.9.54-3.01 2.01-3.94 1.24-.78 2.43-1.64 3.7-2.51 1.14 1.28 1.36 2.66 1.78 3.92 2.92 8.95 6.32 17.73 10.2 26.28 4.27 9.38 8.51 18.79 12.8 28.16 1.1 2.4 2.14 4.82 3.18 7.24.98 2.28.86 2.58-1.5 2.83-6.95.74-13.9 1.51-20.87 2.09-14.51 1.22-29.04 2.3-43.55 3.51-2.74.23-5.46.72-8.16 1.21-3.08.55-3.83 1.62-3.51 4.77.52 5.16 2.73 9.49 6.43 13.11 12.74 12.47 27.28 21.94 44.59 26.8.53.15 1.15.16 1.46.76-.8 1.18-2.16 1.16-3.33 1.5-3.63 1.06-7.37 1.81-10.8 3.4-7.18 3.32-14.31 6.75-21.4 10.25-6.4 3.16-12.08 7.41-17.45 12.08-1.04.9-2.27 1.51-3.18 2.6-2.42 2.89-4.9 5.75-7.44 8.53-5.9 6.46-10.29 13.98-14.95 21.3-3.95 6.19-6.44 13.15-9.67 19.73-1.96 3.99-3.9 8.04-5.28 12.25-1.28 3.91-2.61 7.8-4.01 11.66-2.39 6.56-4.47 13.14-5.44 20.12-.77 5.55-1.48 11.09-2.07 16.66-.73 6.87-.6 13.69 0 20.55.31 3.51 1.54 6.97.77 10.56-.41 1.22-.28 2.49-.3 3.75-.13 9.18 1.3 18.26 1.63 27.41.16 4.33.96 8.61 2.1 12.83 1.82 6.73 3.45 13.51 5.16 20.26-1.46-.5-2.5-1.52-3.49-2.66-6.63-7.61-14.27-14.2-21.46-21.25-10.87-10.67-21.78-21.29-32.1-32.49-1.47-1.59-2.79-3.32-4.48-5.35 8.13-5.3 16.23-10.53 22.76-17.53 6.5-6.97 13.15-13.94 17.26-22.67-.89-1.1-1.92-.58-2.75-.86-.78-1.03-1.92-.95-3.04-1.02-2.3-.14-4.35.76-6.46 1.43-.27-.94-.76-1.13-1.78-.92-5.07 1.02-9.92 2.65-14.52 4.97-1.44.73-2.43.81-3.56-.51-2.08-2.43-5.13-2.38-7.79-.65-7.75 5.04-15.46 10.17-21.47 17.38-.8.96-1.44 1.31-2.54.46-2.2-1.68-4.66-1.42-7.21-.98-2.48.43-4.43 1.74-6.38 3.16-1.36.99-2.48 2.36-4.25 2.72zm39.3-71.48c.41-.58.32-1.15.18-1.71-.88-3.52-.75-7.14-.26-10.61 1.55-11.07 5.08-21.64 9.7-31.75 4.86-10.65 12.73-19.28 20.63-27.73 5.08-5.44 10.23-10.83 15-16.55 4.69-5.63 9.32-11.32 13.07-17.65 4.86-8.19 8.99-16.74 12.67-25.51 1.1-2.62 2.22-5.31 1.79-8.29-.33-2.3-1.95-3.12-3.93-1.92-1.21.73-1.96 1.9-2.69 3.08-2.65 4.29-5.27 8.6-7.97 12.86-4.85 7.66-10.57 14.68-16.38 21.63-5.88 7.03-11.66 14.14-17.78 20.97-4.36 4.86-8.67 9.78-12.57 15-6.75 9.03-11.06 19.19-13.15 30.33-1.63 8.66-3.88 17.22-3.38 26.15.2 3.61 1.19 6.97 2.79 10.2.53 1.07 1.19 1.56 2.31 1.5z"/><path class="cls-1" d="M660.21 301.18c-10.07 1.63-20.28 2.28-30.28 4.32-8.99 1.83-18.06 3.17-27.13 4.52-.79.12-1.59.25-2.38.37-1.09.16-1.43-.41-1.37-1.4.31-4.92.61-9.84.9-14.77.09-1.54.71-1.98 2.38-1.99 6.32-.04 12.51-1.43 18.79-2 17.58-1.59 34.99-4.63 52.58-6.24 14.04-1.28 28.1-2.29 42.15-3.44 14.97-1.23 29.96-2.07 44.99-2.11 12.05-.03 24.04.78 36.03 1.97 9.82.98 19.58 2.31 29.19 4.44 10.08 2.23 19.86 5.54 29.31 9.74 9.28 4.13 17.86 9.36 25.41 16.19 2.81 2.54 5.5 5.19 7.78 8.23q-.03 3.07 3.23 4.4c1.42 1.4 2.26 3.21 3.02 4.97 3.75 8.62 5.65 17.67 5.8 27.06.16 10.2-3.4 19.31-8.65 27.85-5.75 9.34-13.03 17.37-21.16 24.7-8.61 7.77-17.7 14.91-27.21 21.49-16.59 11.49-33.29 22.84-51 32.59-12.23 6.74-24.83 12.75-37.41 18.81-8.45 4.07-16.77 8.38-25.21 12.47-13.08 6.34-26.23 12.53-39.31 18.88-6.17 3-12.53 5.61-18.47 9.08-2.09 1.22-3.83 2.84-5.88 4.57-1.37-2.46-2.62-4.71-3.89-6.99.52-1.01 1.6-1.23 2.48-1.64 7.27-3.42 13.89-8.07 21.26-11.28 5.14-2.24 10.16-4.79 15.55-6.42.76-.23 1.47-.63 2.18-1.01 6.59-3.49 13.26-6.79 20.16-9.66a278.228 278.228 0 0032.65-16.17c.38.92 1 .67 1.68.38 5.56-2.44 11.15-4.8 16.67-7.31 11.38-5.19 22.54-10.83 33.68-16.5 3.26-1.66 6.42-3.53 9.54-5.46 9.15-5.66 17.99-11.77 26.44-18.44 2.87-2.27 5.58-4.74 8.38-7.1 7.21-6.06 13.97-12.58 20.07-19.72 5.27-6.17 10.15-12.68 15.09-19.12 1.66-2.17 3.53-4.24 4.6-6.82.27-.65.39-1.44-.22-1.91-.65-.5-1.3-.09-1.82.41-.74.72-1.55 1.39-2.18 2.2-5.05 6.36-9.93 12.85-15.27 18.99-4.83 5.54-9.99 10.78-15.54 15.52-7.12 6.08-14.87 11.4-22.78 16.46-7.52 4.82-15.3 9.18-23.1 13.5-.79.44-1.65 1.04-2.32-.2 9.36-6.99 17.38-15.33 24.25-24.72 7.81-10.66 12.28-22.72 13.92-35.82.3-2.4.53-4.93-1.86-6.56-2.52-1.72-4.8-.42-7.09.73-12.13 6.12-24.73 10.91-38.13 13.43-.74.14-1.52.57-2.37-.1.61-2.34 2.12-4.26 3.45-6.2 3.12-4.55 5.66-9.43 8.58-14.08 4.23-6.72 9.76-12.41 14.7-18.56 2.94-3.66 5.87-7.33 8.89-10.92 3.21-3.82 3.04-8.23 2.45-12.74-.18-1.39-1.22-2.12-2.3-2.83-2.43-1.6-5.21-2.38-7.88-3.37-8.06-2.99-16.4-5.01-24.76-7.01-15.85-3.81-31.9-6.29-48.07-8.22-15.5-1.85-31.07-2.27-46.66-2.23.35-.83.59-1.67 1.74-1.89 1.23-.23 2.41-.71 3.61-1.11 9.54-3.25 19.25-5.82 29.24-7.26 2.48-.36 4.94-.87 7.41-1.31.87-.16 1.52-.58 1.62-1.52.1-.92-.54-1.46-1.18-1.96-.58-.46-1.28-.4-1.97-.48-7.42-.89-14.88-.65-22.32-.71-7.25-.05-14.41.92-21.44 2.41-14.42 3.05-28.16 8.12-41.23 14.95-.77.4-1.82.54-2.01 1.67z"/><path class="cls-3" d="M672.28 660.63c-.9 3.07-1.76 6.14-2.7 9.2-3.32 10.75-5.43 21.78-7.79 32.75-2.14 9.97-3.6 20.07-5.01 30.15-1.52 10.89-2.26 21.89-3.35 32.84-.72 7.15-1.47 14.3-2.24 21.79-2.38-.73-4.1-2.09-5.76-3.38-3.03-2.33-6.25-4.26-9.74-5.77-8.62-3.74-17.17-7.68-26.33-10.02-6.98-1.78-14-2.45-21.13-1.12-.68.13-1.37.15-2.04.3-1.74.39-2-.49-1.71-1.91.76-3.83 1.62-7.64 2.25-11.48 2.69-16.46 3.89-33.03 3.13-49.71-.11-2.52-.27-5.07-.78-7.52-.39-1.88.16-2.9 1.58-4.06 6.38-5.17 13.56-8.99 20.87-12.58 9.21-4.53 19.05-7.26 28.91-9.94 10.4-2.82 20.9-5.33 30.73-9.92.19-.09.45-.05.67-.06.14.15.29.3.44.44zM319.86 433.98c-1.23-.25-.86-1.38-1.11-2.12-2.26-6.87-5.66-13.01-11.2-17.82-1.73-2.9-3.6-5.72-4.83-8.89 4.37-.12 8.66.58 12.95 1.25 14.6 2.28 29.06 5.35 43.56 8.21 3.59.71 7.24 1.15 10.87 1.62 1.98.26 3.85-.14 5.61-1.2 3.62-2.19 7.29-4.3 11.18-6.58 1.53 2.66 1.28 5.62 2.14 8.8-2.25 0-4.07-.08-5.88.02-3.59.2-6.85 1.06-8.45 4.79-.47 1.09-1.15 1.2-2.19.72-1.56-.73-3.15-1.39-4.78-1.94-5.04-1.7-9.51-.77-13.24 3.1-1.69 1.76-2.08 2.87-2.64 6.56-5.21-.79-9.36 1.62-13.11 4.74-3.54 2.93-6.49 14.52-4.98 18.89 1.1 3.21 2.97 5.99 5.71 8.01 5.56 4.09 13.09 2.71 17.2-3.27 1.16-1.69 2.28-2.34 4.35-2.43 5.93-.24 10.63-4.38 11.97-10.13.13-.54 0-1.15.52-1.56q5.86 1.57 11.19-.38c.79.9 0 1.74-.2 2.51-4.01 14.69-10.84 27.94-20.23 39.92-8.35 10.66-17.12 20.96-25.93 31.24-.66.77-1.24 1.66-2.19 2.14-1.38-6.5-3.48-12.78-5.91-18.97a26.55 26.55 0 01-1.59-6.31c-1.3-10.19-.18-20.33.45-30.49.21-3.4 1.37-6.72.62-10.22-1.62-7.56-5.66-13.9-9.86-20.17zm206.5-56.61c.43 1 .65 1.4.78 1.83 1.27 4.09 3.93 6.7 8.21 7.34 5.52.83 10.98.67 16.26-1.43 2.86-1.14 5.14-3.01 6.93-5.47 1.56-2.14 2.09-4.62 1.68-7.19-1.73-10.69-10.47-17.85-19.9-17.29-4.25.25-8.09 1.48-11.15 4.61-.78.79-1.4 1.77-2.88 1.01-4.92-2.53-9.82-1.15-14.69.28-.65.19-1.29.49-1.88.85-1.43.88-2.01.21-2.42-1.13-1.86-6.03-3.26-12.18-4.78-18.3-.4-1.62.58-1.89 1.74-2.32 13.75-5.14 27.56-9.99 42.22-12.05 8.04-1.13 15.87-3.51 23.91-4.56.69.88.35 1.82.27 2.7-.99 10.44-.35 20.85.46 31.26 1.1 14.19 2.84 28.29 5.35 42.3.5 2.79.43 2.7-2.47 2.96-10.52.95-20.91 2.69-31.16 5.24-4.72 1.18-8.9 3.65-13.11 5.96-1.46.8-2.14.78-2.86-.8-4.12-9.09-7.85-18.34-11.18-27.74-.74-2.09-.61-2.21 1.56-2.72.78-.18 1.57-.36 2.36-.48 2.87-.45 5.22-1.69 6.74-4.86zm-31.28-34.68c1.3 2.72 1.12 5.77 1.85 8.62.91 3.55 1.65 7.15 2.47 10.73.72 3.1.59 3.39-2.14 4.69-5.2 2.47-6.68 5.18-6.29 12.02-3.36-.44-6.57.16-9.68 1.39-4.8 1.89-8.72 4.68-10.13 9.95-.41 1.52-1.45 1.9-2.74 2.17-1.91.39-3.84.72-5.71 1.23-4.98 1.36-8.05 4.59-9.32 9.6-.94 3.72-.99 3.69-4.66 3.96-1.26.09-2.5.32-3.75.51-3.92.61-6.42 2.74-7.41 6.66-.61 2.39-.71 2.36-2.99 2.01-1.36-.21-2.73-.39-4.08-.6-5.49-.87-9.73 1.15-12.57 5.8-1 1.63-1.74 1.37-2.96.58-2.12-1.38-4.38-2.51-6.7-3.51-2.35-1.01-4.78-1.6-7.34-1.64-2.22-.03-4.39.04-6.03 1.87-.31.34-.72.64-1.2.48-.69-.23-.67-.87-.59-1.43.31-2.09 0-4.14-.59-6.12-.36-1.2-.88-2.38-1.52-3.45-1.42-2.37-1.51-2.43.66-3.64 5.64-3.12 10.46-7.37 15.56-11.23 3.25-2.46 6.54-4.81 10.14-6.73.34.36.67 1.11 1.02 0 0 0-.19-.04-.18-.04 1.24.75 2.2-.13 3.19-.6.82-.39 1.48-1.11 2.32-1.43 4.95-1.9 9.33-4.9 14.06-7.22 3.08-1.51 6.09-3.18 9.04-4.94 6.29-3.76 12.31-7.94 18.22-12.26 2.3-1.68 4.81-3.08 7.12-4.74 4.64-3.35 9.04-7 13.18-10.95.71-.68 1.4-1.51 2.59-1.12.32 1.08.12 2.11.02 3.13-.68 6.38-1.76 12.68-3.64 18.82-.27.9-.43 1.78-.39 2.7.02.45.01.95.49 1.19.66.33 1.08-.18 1.47-.56.32-.32.58-.71.82-1.1 3.19-5.12 5.05-10.74 6.13-16.63.37-2.02.55-4.08.82-6.12.12-.94.3-1.84 1.45-2.06z"/><path class="cls-1" d="M531.59 515.7c.19 1.65-1.26 1.68-2.2 2.14-11.54 5.65-22.98 11.47-34.33 17.49-7.26 3.85-13.54 9.04-20.03 13.94-12.42 9.38-23.41 20.26-33.18 32.36-8.07 10-13.65 21.37-18.47 33.25-5.15 12.68-7.54 25.94-9.66 39.31-.68 4.3-1.39 8.6-2.03 12.91-1.39 9.37-.96 18.77-.3 28.16.17 2.36.68 4.79-.68 7.15-1.93-.81-2.23-2.61-2.6-4.18-1.23-5.14-1.88-10.37-2.23-15.64.77-3.59-.47-7.05-.77-10.56-.6-6.87-.73-13.69 0-20.55.59-5.57 1.3-11.11 2.07-16.66.96-6.98 3.05-13.56 5.44-20.12 1.41-3.86 2.74-7.75 4.01-11.66 1.37-4.21 3.31-8.26 5.28-12.25 3.24-6.57 5.73-13.53 9.67-19.73 4.66-7.31 9.04-14.84 14.95-21.3a260.9 260.9 0 007.44-8.53c.91-1.09 2.14-1.7 3.18-2.6 5.37-4.66 11.05-8.91 17.45-12.08 7.09-3.5 14.22-6.93 21.4-10.25 3.43-1.59 7.18-2.34 10.8-3.4 1.16-.34 2.53-.32 3.33-1.5 6.15 1.29 12.3 2.59 18.46 3.86.99.2 2.01.28 3.02.42z"/><path class="cls-2" d="M595.11 291.84c.65.97.35 1.61.19 2.28-2.73 11.73-4.93 23.52-5.45 35.61-1.06 24.9 2.98 49.11 9.4 73.02 3.54 13.18 7.48 26.24 12.33 38.99 4.73 12.44 9.99 24.66 15.96 36.57 7.35 14.68 15.34 28.99 24.08 42.9 1.77 2.82 3.75 5.49 6.09 7.88 1.02 1.04 1.79 2.07.86 3.62-.34.56-.45 1.32-.45 1.99 0 1.58-.86 2.15-2.28 2.47-1.45.33-2.16-.36-2.73-1.46-4.12-7.86-9.66-14.78-14.7-22.02-5.11-7.34-10.6-14.42-15.18-22.13-11.55-19.45-22.41-39.24-29.94-60.68-4.8-13.66-8.5-27.59-10.93-41.88-2.34-13.71-3.42-27.53-4.29-41.38-.49-7.68-.67-15.35-.03-23.03.57-6.87 2-13.6 3.22-20.37.36-2.03.78-4.05 1.07-6.09.18-1.28.76-2.03 2.02-2.45 3.58-1.21 7.11-2.53 10.77-3.84z"/><path class="cls-3" d="M487.12 475.66c5.44-.91 10.95-.88 16.42-1.3 10.98-.84 21.91-2.17 32.82-3.69 4.99-.7 10.14-.62 14.98-1.83 11.65-2.9 23.51-4.95 34.96-8.63 2.08-.67 4.2-1.19 6.24-1.94 1.45-.53 2.26-.36 2.97 1.16 5.56 11.97 11.97 23.5 18.72 34.83 1.53 2.56 3.24 5 4.85 7.51 1.49 2.32 1.56 2.49-.64 4.17-3.65 2.79-7.61 5.1-11.86 6.88-6.9 2.89-14.11 4.74-21.34 6.54-1.56.39-2.62.24-3.46-1.24-.84-1.49-1.83-2.89-2.68-4.21.1-1.14 1.01-1.13 1.55-1.29 7.61-2.32 13.81-7.09 20.1-11.65 1.94-1.41 3.35-3.44 4.62-5.52.72-1.17.38-1.93-.75-2.5-.93-.47-1.92-.73-2.96-.85-1.13-.13-2.31.01-3.37-.56-.22-2.6-1.77-4.28-3.79-5.74-1.79-1.29-4.01-1.38-5.87-2.41.77-1.22.17-1.85-.93-2.37-5.84-2.76-12.07-3.47-18.37-2.94-4.3.36-8.53 1.56-12.82 2.26-2.13.35-4.37.81-6.45.5-4.85-.72-9.76-1.18-14.48-2.62-5.01-1.53-9.91-1.63-14.54 1.33-1.85 1.18-3.92 1.28-5.97.72-3.91-1.06-7.89-1.23-11.92-1.21-2.28.01-4.57.31-6.85-.1-1.18-.95-2.63-1.29-4.04-1.7-1.73-.51-3.55-.71-5.15-1.61z"/><path class="cls-2" d="M587.16 686.52c-1.73-4.63-3.09-9.24-5.26-13.53-2.11-4.18-5.26-7.68-8.08-11.87 2.64-.47 4.7.42 6.77.68 9.66 1.22 19.19.6 28.69-1.39 12.01-2.52 23.98-5.11 35.41-9.71 12.24-4.93 24.25-10.32 35.42-17.43.59-.37 1.16-.74 1.9-.66.66.59.37 1.23.12 1.87-2.21 5.77-4.56 11.49-6.58 17.33-.7 2.02-1.84 2.85-3.71 3.53-11.15 4.05-22.76 6.18-34.33 8.49-10.13 2.02-20.1 4.62-29.74 8.37-6.56 2.55-12.91 5.43-17.26 11.37-.74 1.01-1.73 1.82-2.61 2.72-.07.07-.21.07-.75.25z"/><path class="cls-3" d="M704.32 579.5c-.8-1.02-2.13-.45-3.22-.23-1.12.22-2.23.55-3.34.84-14.89 3.84-27.96 11.37-40.54 19.9-11.52 7.81-21.78 17.2-32.52 25.99-7.2 5.9-14.94 11.05-22.5 16.44-6.43 4.59-13.43 8.36-20.15 12.54-.44.27-1.47.25-1.06 1.58 6.81-1.44 13.87-1.4 20.61-3.45 1.01.56 2.04.14 3.01-.04 6.07-1.12 12.14-2.26 18.19-3.5 11.67-2.38 22.84-6.41 33.91-10.69 9.18-3.55 18.1-7.72 26.73-12.47 1.42-.78 2.79-1.6 3.35-3.26 2.31-6.79 5.56-13.23 7.68-20.1 1.07-1.24 1.6-2.77 2.23-4.24 2.34-5.48 4.65-10.97 6.94-16.47.38-.91 1.38-1.93.66-2.85zM501.9 336.84c-.48-.27-.66-.67-.75-1.14a77.94 77.94 0 01-1.24-17.12c.05-1.5.79-1.93 2.05-2.22 4.59-1.04 9.17-2.11 13.73-3.23 19.38-4.76 38.83-9.22 58.13-14.27.93-.24 2.05-1.1 2.87-.09.65.8-.19 1.74-.45 2.57-1.6 4.91-3.15 9.84-4.08 14.93-.34 1.85-1.25 2.3-2.98 2.52-7.28.94-14.62 1.27-21.87 2.56-11.89 2.12-23.56 4.97-34.79 9.49-2.79 1.12-5.48 2.3-7.75 4.35-.82.74-1.67 1.59-2.87 1.65z"/><path class="cls-5" d="M502.59 610.81c.01 1.46-.82 2.57-1.48 3.77-1.23 2.21-.99 3.71.72 5.57 1.8 1.95 3.92 3.48 6.25 4.76 2.53 1.39 4.61 3.23 6.47 5.5 2.24 2.74 4.86 5.16 7.38 7.66 9.04 8.98 16.92 18.9 23.45 29.82 3.9 6.52 5.95 13.82 7.38 21.25.21 1.1 1.42 2.29.18 3.51-3.49-3.65-6.2-7.89-9.13-11.97-5.35-7.45-10.64-14.95-17.24-21.4-1.23-1.2-2.41-2.72-4.32-2.44-1.72.25-2.51-.77-3.45-1.76-3.72-3.9-7.43-7.81-11.16-11.69-2.49-2.59-5.57-3.96-9.12-4.33-2.09-.22-3.85.37-5.19 2.04-.5.62-.99 1.25-1.54 1.94-2.42-1.59-4.77-3.13-7.13-4.68 2.04-4.19 3.03-8.83 5.52-12.82 2.24-3.59 5.21-6.61 7.68-10.02 1.32-1.82 2.57-3.7 4.56-4.89l.17.16z"/><path class="cls-2" d="M425.29 729.82c2.58.56 2.41 3.04 3.33 4.76-.48.69-.59 1.42-.2 2.18.76 7.62 4.89 13.92 8.07 20.59.4.84 1.24 1.53 2.23 1.33 1.9-.37 3 .8 4.18 1.88 5.32 4.89 10.33 10.08 15.06 15.53 3.62 4.16 7.53 8.03 12.38 10.79 1.17.66 2.42 1.65 3.82.74 1.51-.99.79-2.43.43-3.73-.37-1.32.26-1.72 1.42-1.48 3.27.67 6.42 1.71 9.3 3.45 3.83 2.31 7.66 4.59 11.47 6.93 2.16 1.33 4.42 2.45 6.9 2.99 2.79.6 3.48 0 3.77-3.1l.69-.51c2.76.85 5.53 1.7 8.29 2.56 1.14 1.01 2.37.84 3.64.31 4.14 2.21 8.28 4.44 12.44 6.61.99.52 1.92 1.29 3.15 1.22l.02.06c.02.42.28.56.66.52 4.31 4.12 7.83 8.94 12.05 13.58-1.18.66-2.25.66-2.98.05-2.61-2.18-5.81-3.16-8.79-4.59-3.11-1.49-6.18-3.04-8.99-5.06-.74-.53-1.52-1.04-2.32-1.48-4.3-2.33-6.86-1.19-8.06 3.59-1.14.17-1.95-.6-2.78-1.14-6.95-4.47-14.15-8.54-20.65-13.7-1.44-1.14-3-2.12-4.54-3.12-1.16-.75-2.41-1.35-3.77-1.63-1.92-.4-3.68-.07-4.97 1.56-1.2 1.52-1.19 3.25-.37 4.87 1.3 2.56 2.78 5.01 4.17 7.52.53.96 1.01 1.94 1.69 3.26-1.69-.25-2.37-1.21-3.18-1.92-12.67-11.02-24.3-23.07-35.2-35.84-.9-1.05-1.75-2.15-3-2.79-1.44-.73-2.91-.81-4.19.29-1.14.98-1.51 2.29-1.07 3.75.3.99.68 1.95 1.08 2.9 3.86 9.2 7.73 18.39 11.59 27.58.4.95.73 1.92.76 3.12-.91-1.3-1.91-2.53-2.71-3.89-9.52-16.19-17.03-33.29-22.78-51.15-2.03-6.31-2.36-12.83-2.06-19.4z"/><path class="cls-1" d="M332.96 538.36c1.01.77.42 1.64.14 2.48-3.11 9.4-4.1 19.2-5.61 28.91-.12.79-.11 1.6-.12 2.4-.04 7.56-.12 15.12-.09 22.68.05 13.39 3.08 26.29 6.5 39.12.13.48.38.81.86.95-2.81 1.9-6.24 2.06-9.3 3.24-.77.3-1.22-.37-1.55-1.02-3.18-6.2-6.48-12.28-7.79-19.32-3.11-16.75-2.18-33.32 1.77-49.74 2.22-9.23 7.04-17.37 12.12-25.3.96-1.5 1.45-3.36 3.06-4.41zM793.3 338.99c-9.63 3.56-26.93 12.9-35.16 18.74-11.01 7.81-20.53 17.2-29.24 27.49-6 7.09-12.19 14.02-18.9 20.46-2.57 2.46-5.32 4.71-8.31 6.66-1.84 1.2-2.88.89-3.85-1.06-.95-1.91-1.06-3.96-.73-6.05.89-5.6 3.55-10.43 6.91-14.82 4.9-6.4 10.69-11.99 17.11-16.86 12.02-9.12 25.01-16.61 38.87-22.6 5.02-2.17 9.91-4.65 14.92-6.84 2.92-1.27 14.74-7.05 17.73-8.15 0 .39.65 2.65.65 3.04z"/><path class="cls-3" d="M586.5 695.62c-.42-.54-2.15-3.19-1.93-3.86.25-.77-.74 1.16-.87.34-1.62-9.82-4.42-19.19-10.41-27.35-1.84-2.5-1.81-2.55-4.65-1.33-2.93 1.26-5.7 2.77-9.12 2.59-3.38-.17-6.69-.51-9.99-1.84.17 1.31.76 2.01 1.31 2.73 5.37 6.97 9.19 14.75 11.98 23.06 1.75 5.21 3.58 10.41 4.71 15.79 1.05 5.02 2.58 9.98 2.55 15.19-.02 2.74-.68 3.31-3.32 2.51-5.12-1.55-10.18-3.3-15.31-4.82-2.19-.65-4.21-1.79-6.28-2.57l16.14 2.44-5.79-32.15s-13.61-29.83-23.17-40.26c-9.56-10.43-28.38-27.23-28.38-27.23s11.59-15.35 28.1-34.47c16.51-19.12 48.08-26.36 48.08-26.36l11.88-7.82-27.23-42.29-25.94 8.82c-2.42-.22-4.84-.55-7.25-1.05.19 1.65-1.26 1.68-2.2 2.14-4.48 2.2-8.95 4.43-13.4 6.67l-22.75 7.74-8.46 9.64c-3.3 2.39-6.5 4.92-9.75 7.37-12.42 9.38-23.41 20.26-33.18 32.36-8.07 10-13.65 21.37-18.47 33.25-5.15 12.68-7.54 25.94-9.66 39.31-.68 4.3-1.39 8.6-2.03 12.91-1.39 9.37-.96 18.77-.3 28.16.17 2.36.68 4.79-.68 7.15-1.93-.81-2.23-2.61-2.6-4.18-1.23-5.14-1.88-10.37-2.23-15.64-.41 1.22-.28 2.49-.3 3.75-.13 9.18 1.3 18.26 1.63 27.41.16 4.33.96 8.61 2.1 12.83 1.82 6.73 3.45 13.51 5.16 20.26.39.41.71.92 1.17 1.2 1.31.8 1.9.55 2.07-.87.1-.79.06-1.6.06-2.4 0-4.49.78-8.85 2.1-13.13.37-1.21.83-2.4 1.88-3.2 1.61-1.23 2.98-.69 3.53 1.36 2.58.56 2.41 3.04 3.33 4.76.85.5 1.69 1 1.71 2.16 2.86 3.42 3.7 7.86 5.9 11.62.52.89 1.01 1.81 1.35 2.78.66 1.87 1.7 2.89 3.87 3.21 2.43.35 4.15 2.3 5.89 4 6.23 6.1 12.73 11.92 18.49 18.49.68.77 1.55 1.37 2.25 2.12 1.2 1.29 2.2 1.64 3.53 0 .92-1.13 2.5-.97 3.89-.93 5.32.15 10.02 2.37 14.63 4.69 4.2 2.11 8.23 4.55 12.29 6.92 1.24.72 2.24.95 3.79.58 3.63-.87 6.98.58 10.18 2.22 1.79.06 3.02.92 3.66 2.6 4.14 2.21 8.28 4.44 12.44 6.61.99.52 1.92 1.29 3.15 1.22-.09-.96-.58-1.79-1.16-2.46-5.12-5.83-9.59-12.26-16.26-16.63-3.89-2.54-3.71-4.19.28-6.74.67-.43 1.44-.71 2.19-.97 5.89-2 11.99-3.15 18.15-3.32 10.67-.29 20.71 2.97 30.67 6.37 1.98.68 3.04.46 3.82-1.42.35-.84.57-1.74.85-2.62 3.41-10.69 6.67-21.42 8.08-32.6.8-6.35 1.77-12.7 2.13-19.08.38-6.87.17-13.77.14-20.66 0-2.13 3.46-5.21 1.95-7.14zm-93.48 17.41c-4.23.37-7.58-.92-11.06-2.62-.92-.45-1.73-1.12-2.65-1.59-1.57-.82-2.71-1.88-3.49-3.24l38.07 5.76c-7 .19-13.93 1.09-20.88 1.69z"/><path class="cls-1" d="M809.62 437.59c.67 1.24 1.53.63 2.32.2 7.8-4.32 15.58-8.68 23.1-13.5 7.91-5.07 15.66-10.38 22.78-16.46 5.55-4.74 10.71-9.98 15.54-15.52 5.34-6.13 10.22-12.63 15.27-18.99.64-.8 1.44-1.48 2.18-2.2.52-.5 1.17-.92 1.82-.41.61.48.49 1.27.22 1.91-1.07 2.58-2.93 4.65-4.6 6.82-4.94 6.45-9.82 12.95-15.09 19.12-6.1 7.14-12.86 13.66-20.07 19.72-2.8 2.36-5.51 4.83-8.38 7.1-8.45 6.67-17.29 12.78-26.44 18.44-3.11 1.93-6.28 3.8-9.54 5.46-11.14 5.68-22.3 11.31-33.68 16.5-5.52 2.52-11.11 4.87-16.67 7.31-.67.3-1.29.54-1.68-.38 3.8-3.12 7.95-5.75 12.06-8.43 13.06-8.52 26.56-16.38 39.09-25.72.54-.4 1.01-.96 1.77-.98z"/><path class="cls-3" d="M683.01 494.26c-4.2 2.34-8.46 4.6-12.59 7.06-3.99 2.38-8.51 3.39-12.72 5.2-1.8.78-2.78-.28-3.56-1.72-2.28-4.24-4.56-8.47-6.85-12.7-.76-1.41-1.56-2.81-2.34-4.21.06-.8-.17-1.46-.89-1.9-.61-1.21-1.22-2.42-1.83-3.62.07-.82-.25-1.43-.95-1.85-1.99-4.32-4.01-8.63-5.96-12.97-.55-1.22-1.29-2.41-1.22-3.88 1.16-.11 1.8.62 2.46 1.14 10.21 8.07 22.17 12.26 34.53 15.52 2.76.73 5.59 1.25 8.38 1.86.13 3.75.68 7.37 3.07 10.47.32.41.32 1.06.47 1.59z"/><path class="cls-2" d="M588.64 483.4c1.86 1.03 4.08 1.12 5.87 2.41 2.03 1.46 3.57 3.14 3.79 5.74-2.45.39-4.74-.63-7.14-.78-5.72-.35-11.44-.72-17.14-1.21-5.94-.51-11.86-1.17-17.79-1.76-.68-.07-1.37-.2-2.05-.22-3.4-.12-4.22.77-3.8 4.37-6.82-1.15-13.49-2.65-20.15-4.26-1.89-.46-3.76-1.05-5.74-1.02-1.07.01-2.12.15-2.53 1.33-.42 1.2.32 1.99 1.19 2.6 1.97 1.38 3.99 2.69 6 4.02 1.01.67 2.04 1.33 2.95 2.19-6.99-1.48-13.78-3.51-20.57-5.56-5.62-1.69-10.86-4.31-16.2-6.66-1.25-.55-2.55-1.02-3.87-1.4-.8-.23-1.63-.04-2.04.83-.33.69-.14 1.38.35 1.91 1.16 1.25 2.37 2.44 3.52 3.62-4.64-.7-17.53-8.45-21.82-13.25 2.62-.94 5.22-.52 7.75-.56 2.63-.04 5.26-.43 7.89-.07 1.6.91 3.42 1.1 5.15 1.61 1.41.42 2.85.75 4.03 1.7-1.18.23-2.5.03-3.67 1.22.79.2 1.32.43 1.85.46 7.45.46 14.75 1.91 22.05 3.39 1.79.36 3.5.13 4.99-.74 4.53-2.67 9.06-2.06 13.93-.89 6.44 1.55 13.03 2.25 19.74 1.23 4.99-.76 9.92-1.75 14.87-2.66l.33.1.31-.14c6.07.19 12.14.33 17.94 2.45zm-285.92-78.26c1.23 3.17 3.1 6 4.83 8.89-.07 2.99 1.28 5.6 2.51 8.14 3.27 6.71 4.56 13.91 5.54 21.19.84 6.23.05 12.35-1.45 18.41-1.05 4.23-2.05 8.47-3.07 12.7-1.92 7.95-1.27 15.99-.39 23.96 1.12 10.11 4.23 19.7 8.83 28.78 1.26 2.48 2.24 5.02 1.91 7.9-.11.93-.21 1.82-.92 2.51-2.52 2.46-5.04 4.93-7.78 7.61-.52-1.6.1-2.75.49-3.82 1.15-3.15.97-6.15.09-9.39-1.5-5.54-3.47-10.92-4.89-16.47-3.2-12.53-4.48-25.25-3.26-38.16.89-9.46 1.86-18.92 2.73-28.39.13-1.46-.07-2.97-.23-4.45-.91-8.32-2.67-16.5-4.43-24.67-.89-4.13-1.99-8.25-2.06-12.52-.02-1.03-.48-2.54 1.54-2.22z"/><path class="cls-1" d="M319.86 433.98c4.2 6.28 8.24 12.62 9.86 20.17.75 3.5-.41 6.82-.62 10.22-.63 10.16-1.75 20.3-.45 30.49.28 2.18.8 4.29 1.59 6.31 2.42 6.18 4.52 12.46 5.91 18.97-1.88 3.47-4.86 6-7.57 9.25-3.37-7.41-6.55-14.43-8.73-21.9-2.51-8.6-3.06-17.36-2.8-26.23.06-2.2.68-4.3 1.15-6.42 1.27-5.71 2.53-11.42 3.7-17.15 1.41-6.94-.08-13.69-1.61-20.42-.24-1.08-.93-2.12-.42-3.3zm340.35-132.8c.18-1.13 1.24-1.27 2.01-1.67 13.07-6.84 26.82-11.9 41.23-14.95 7.03-1.49 14.19-2.46 21.44-2.41 7.45.05 14.9-.18 22.32.71.68.08 1.38.03 1.97.48.64.5 1.28 1.04 1.18 1.96-.1.93-.75 1.36-1.62 1.52-2.47.44-4.93.96-7.41 1.31-9.99 1.44-19.7 4-29.24 7.26-1.19.41-2.38.89-3.61 1.11-1.15.21-1.39 1.05-1.74 1.89-4.56.19-9.13.34-13.69.58-10.18.54-20.36 1.03-30.49 2.27-.78.1-1.59.3-2.37-.06zm-165.13 41.51c-1.14.22-1.33 1.12-1.45 2.06-.27 2.04-.44 4.1-.82 6.12-1.08 5.89-2.94 11.51-6.13 16.63-.24.39-.5.78-.82 1.1-.39.39-.82.89-1.47.56-.47-.24-.46-.74-.49-1.19-.04-.92.11-1.81.39-2.7 1.88-6.14 2.96-12.45 3.64-18.82.11-1.02.3-2.05-.02-3.13-1.19-.39-1.88.44-2.59 1.12-4.14 3.95-8.54 7.61-13.18 10.95-2.31 1.67-4.82 3.06-7.12 4.74-5.92 4.33-11.93 8.5-18.22 12.26-2.95 1.76-5.96 3.43-9.04 4.94-4.73 2.32-9.11 5.32-14.06 7.22-.83.32-1.5 1.04-2.32 1.43-.99.47-1.95 1.35-3.19.6-.36-1.1.65-1.37 1.21-1.76 11.01-7.76 22.12-15.38 33.06-23.24 6.87-4.93 13.88-9.73 19.98-15.66 5.68-5.53 10.31-11.95 15.27-18.1 2.05-2.54 4-5.16 6.28-7.66-.17 7.6.54 15.06 1.1 22.53z"/><path class="cls-2" d="M649.06 807.73c-.96.14-1.48-.55-1.99-1.13-6.26-6.92-14.23-11.5-22.21-16-8.93-5.03-18.32-8.92-28.51-10.64-3.87-.65-7.76-.55-11.65-.43-1.23.04-2.5.45-3.81-.27 0-2.77 1.26-5.28 1.81-7.95.27-1.29 1.31-1.37 2.43-1.29 5.39.38 10.67 1.3 15.84 2.91 10.44 3.25 20.37 7.68 29.96 12.84 5.46 2.93 11.19 5.26 16.68 8.09 2.71 1.4 2.72 1.37 2.55 4.47-.12 2.17-.21 4.34-.34 6.51-.06 1 .15 2.09-.76 2.88z"/><path class="cls-1" d="M484.66 638.37c2.36 1.55 4.72 3.09 7.13 4.68.55-.69 1.04-1.32 1.54-1.94 1.34-1.67 3.1-2.26 5.19-2.04 3.55.37 6.63 1.74 9.12 4.33 3.73 3.88 7.44 7.8 11.16 11.69.94.98 1.73 2 3.45 1.76 1.9-.28 3.09 1.24 4.32 2.44 6.6 6.44 11.89 13.95 17.24 21.4 2.93 4.08 5.65 8.32 9.13 11.97.04.82.08 1.64.13 2.47-2.01.98-3.7.35-5.31-.97-2.81-2.32-5.12-5.11-7.58-7.77-1.05-1.13-1.7-2.67-3.27-3.29l.02.03c.03-1.04-.58-1.65-1.41-2.11l.04.06c.03-.53-.26-.86-.71-1.08-1.94-3.03-3.87-6.08-5.82-9.1-.73-1.14-1.55-2.21-2.68-3-.71-1.35-1.13-3.35-3.07-2.98-2.05.39-3.28-.46-4.52-1.71-4.02-4.06-7.96-8.19-11.46-12.72-1.82-2.35-3.71-4.67-6.42-6.08-3.21-1.67-4.25-1.29-5.88 1.95-1.54 3.08-3.01 3.36-5.37.84-2.43-2.6-5.05-4.96-7.96-7-.94-.66-1.87-1.35-1.95-2.65 1.73-.29 3.24.78 4.92.82z"/><path class="cls-2" d="M479.74 637.54c.08 1.3 1.01 1.99 1.95 2.65 2.91 2.05 5.52 4.41 7.96 7 2.36 2.52 3.83 2.24 5.37-.84 1.63-3.25 2.66-3.62 5.88-1.95 2.71 1.4 4.6 3.73 6.42 6.08 3.5 4.53 7.44 8.66 11.46 12.72 1.24 1.25 2.47 2.1 4.52 1.71 1.93-.37 2.36 1.63 3.07 2.98-.23 0-.46.02-.69.02-4.16-.09-5.71 1.49-5.17 5.6.37 2.83 1.08 5.63 1.65 8.43.14.67.43 1.32.2 2.09-1.08-.17-1.21-1.18-1.63-1.87-5.53-9.27-10.14-19.01-14.76-28.75-.59-1.24-1.17-2.5-1.89-3.67-1.19-1.93-2.65-2.66-4.21-2.29-1.77.42-2.81 1.87-2.85 4.18-.02 1.26.13 2.52.24 3.77.68 7.33.78 14.65-.45 21.99-.98-.34-.95-1.22-1.12-1.94-2.01-8.53-5.03-16.67-9.24-24.36-.33-.6-.59-1.24-.84-1.88-1.48-3.82-3.51-7.21-7.06-9.48-.61-.39-1.17-.87-.83-1.65.41-.95 1.22-.86 2.03-.53z"/><path class="cls-1" d="M570.53 409.88c.66-.28.86-.41 1.08-.46 2.02-.39 4.3-1.52 6-.94 1.98.68 1.39 3.57 1.93 5.47 3.34 11.68 7.02 23.23 11.42 34.56 1.64 4.22 1.63 4.24-2.92 4.82-2.27.29-4.56.44-6.83.79-1.65.26-2.55-.38-3.19-1.85-.88-2.01-1.54-4.05-1.84-6.23-.74-5.25-.47-10.52-.51-15.79-.02-2.63-.04-5.28-.25-7.9-.37-4.49-1.11-8.9-4.89-12.47z"/><path class="cls-3" d="M551.61 457.06c-3.9 1.08-4.01 1.13-5.3-1.62-4.13-8.82-8.17-17.68-12.25-26.53-1.15-2.5-2.26-5.02-3.46-7.49-.58-1.19-.42-1.87.92-2.3 2.07-.66 4.15-1.34 6.15-2.2 2.43-1.05 4.23-.28 5.75 1.61 2.97 3.7 4.55 7.95 4.69 12.68.09 2.98-.09 5.96-.14 8.94-.04 2.41-.04 4.82-.11 7.22-.12 3.63 1.32 6.69 3.75 9.69zm5.12-45.14c2.91-1.2 5.58-1.15 8.14-1.65 2.15-.42 3.1 1.1 3.9 2.67 2 3.98 2.66 8.26 2.53 12.67-.16 5.38-.35 10.77-.6 16.15-.18 4.02.67 7.71 2.97 11.08 1.17 1.71.97 1.96-1.1 2.33q-4.27.77-6.28-3.15c-.94-1.84-1.83-3.7-2.72-5.56-1.37-2.85-2.04-5.83-1.72-9 .3-3.08.54-6.17.92-9.23.39-3.13.03-6.19-.67-9.21-.67-2.92-2.74-4.95-5.37-7.1z"/><path class="cls-2" d="M325.49 681.75c-.45-1.46.46-2.65.81-3.95.6-2.25.15-3.96-1.34-4.85-1.59-.95-3.66-.57-5.24 1.15-1.08 1.17-1.97 2.52-2.94 3.79-5.48 7.22-11.68 13.78-18.61 19.6-1.56 1.31-2.79 3.3-5.16 3.48l.06.05c.35-.7.57-1.53 1.08-2.08 5.21-5.66 9.09-12.15 12.11-19.19.34-.79 1.04-1.43 1.57-2.15.13-.25.26-.5.39-.74l-.04.06c.73.07 1.2-.26 1.45-.94 3.48-2.94 7.24-5.51 11.1-7.91.86-.54 1.91-.76 2.95-.83 1.47-.1 2.65.32 3.64 1.48 2.31 2.7 2.37 2.65 4.92.16 4.02-3.91 7.88-8 12.22-11.56 1.55-1.27 2.97-2.82 5.11-3.17-.05.32.02.73-.15.93-7.49 8.74-14.91 17.55-22.88 25.86-.3.32-.73.51-1.11.76l.04.05zm148.66-285.36c1.87-6.92 6.88-10.21 12.97-12.38 1.18-.42 2.2-.28 3.23.46 3.32 2.36 5.43 5.9 8.4 8.59.3 2.85 2.44 5.6.48 8.56-2 3.02-5.17 3.55-8.42 3.86-.58.05-1.14-.09-1.59-.51-4.34-4.07-9.43-6.86-15.08-8.58zm23.52.98c-1.1 1.99-2.91 2.86-4.74 3.72-.51.24-.99.54-1.44.87-.28.21-.37.58-.18.9.1.16.35.3.55.33 2.78.42 6.05-2.6 5.82-5.82z"/><path class="cls-1" d="M543.36 415.54c2.92-1.61 5.7-2.16 8.45-2.77 1.6-.36 2.33.77 3.02 1.78 2.66 3.94 3.76 8.3 3.26 13.05-.38 3.65-.76 7.29-1.09 10.94-.33 3.73.5 7.28 1.87 10.73.43 1.09 1.09 2 1.91 2.82 1.12 1.12 2.18 2.3 3.54 3.74-2.51.91-4.75.91-6.95 1.03-1.02.05-1.6-.83-2.19-1.51-2.03-2.37-2.82-5.23-2.86-8.27-.05-4.24.06-8.48.07-12.72 0-2.86.13-5.74-.74-8.52-1.38-4.38-3.49-8.24-8.28-10.31z"/><path class="cls-2" d="M486.67 411.61c1.97.08 2.36.45 1.79 2.15-1.22 3.68-3.95 5.78-7.61 6.78-.44.12-.91.15-1.37.16-1.25.04-2.62.37-3.74-.01-1.45-.49-.73-2.21-1.12-3.35-1.89-5.54-4.82-10.36-9.19-14.31-3.06-2.77-2.97-2.76.69-4.76 2.96-1.62 5.62-1.87 8.67-.01 5.01 3.04 9.35 6.61 11.98 11.96.23.47.68 1-.12 1.4-.43.54-1.28.16-1.7.88-1.27 2.2-3.39 3.3-5.62 4.27-.57.25-1.5.47-1.08 1.39.35.76 1.21.53 1.84.37 3.62-.92 5.93-3.12 6.55-6.91z"/><path class="cls-1" d="M349.59 654.15c-2.14.35-3.56 1.9-5.11 3.17-4.35 3.56-8.21 7.64-12.22 11.56-2.55 2.49-2.61 2.54-4.92-.16-.99-1.16-2.17-1.58-3.64-1.48-1.05.07-2.09.29-2.95.83-3.87 2.4-7.62 4.97-11.1 7.91l-.3-1.4c.36-1.61.62-3.25 1.88-4.48 1.77-.36 2.89-1.73 4.25-2.72 1.95-1.42 3.9-2.73 6.38-3.16 2.55-.45 5.02-.7 7.21.98 1.1.85 1.74.5 2.54-.46 6-7.2 13.72-12.34 21.47-17.38 2.66-1.73 5.72-1.78 7.79.65 1.13 1.32 2.12 1.23 3.56.51 4.6-2.33 9.45-3.96 14.52-4.97 1.02-.21 1.51-.02 1.78.92-5.49 2.76-11.27 4.92-16.68 7.87-2.51 1.36-2.57 1.31-4.33-.97-.94-1.22-1.94-2.43-3.66-1.84-1.45.5-3.06.92-3.78 2.56l.04-.03c-1.11-.11-1.7.51-2.05 1.47l.03-.02c-.51-.05-.82.12-.74.7l.05-.02z"/><path class="cls-2" d="M452.1 435c-1.71-.28-3.29-.49-4.8-1.12-1.72-.72-2.8-1.62-2.67-3.82.16-2.86-1.33-5.3-2.93-7.56-.77-1.08-.96-1.94-.18-3.09.77-1.13 1.32-2.42 2.06-3.58 1.35-2.12 3.3-3.49 5.7-4.19 2.68-.79 3.31-.56 5.04 1.59 2.44 3.03 3.93 6.44 4.24 10.35.15 1.94.38 3.88.61 5.81.29 2.48-.73 4.26-3.1 4.94-1.31.38-2.71.47-3.96.67zm5.04-7.13c-1.68 1.12-3.47 1.74-5.38 2.06-.9.15-1.79.32-2.68.51-.49.1-.84.47-.78.95.06.47.49.7.97.81 3.05.69 6.56-1.08 7.87-4.32zm-89.24-3.3c.88.14 1.83.14 2.67.45 5.64 2.02 10.31 5.29 13.6 10.43.93 1.45.5 2.33-.62 3.19-1.86 1.42-4.02 2.15-6.26 2.69-2.27.55-4.31.17-6.11-1.37-.17-.15-.46-.36-.59-.31-2.68 1.09-3.64-1.31-5.12-2.56-2.13-1.79-4.39-3.32-7.07-4.1-1.54-.45-1.77-1.18-.88-2.47 2.51-3.62 5.97-5.56 10.38-5.95zm5.21 14.09c3.68.89 5.98-.22 6.9-3.25-1.21.51-2.31.99-3.42 1.44-1.11.46-2.46.41-3.48 1.81z"/><path class="cls-3" d="M624.05 545.18c-3.63.75-6.3 1.31-8.98 1.86-1.09.22-1.7-.51-2.28-1.22-1.47-1.8-2.44-3.87-3.03-6.11-.56-2.1-1.04-4.23-1.67-6.31-1.23-4.05-2.07-5.22-6.51-9.56 2.6-1.03 5.09-2.13 7.67-2.98 1.55-.51 2.81.46 3.9 1.5 2.41 2.29 3.72 5.19 4.47 8.36.18.78.28 1.58.38 2.38.56 4.4 1.82 8.49 6.04 12.09z"/><path class="cls-1" d="M635.21 542.9c-.63.19-1.07.33-1.51.45-5.49 1.46-5.85 1.34-8.38-3.79-1.12-2.26-1.88-4.67-2.43-7.13-1.28-5.65-3.73-10.55-9.11-13.66 1.91-1.77 3.69-3.35 5.38-5.03.88-.88 1.59-.58 2.41-.04 3 1.98 4.85 4.79 5.98 8.13.96 2.84 1.34 5.79 1.77 8.73.52 3.56 1.33 6.96 4.14 9.55.72.66 1.43 1.47 1.75 2.79zm-48.1-16.97c2.72 0 5.01.12 7.27-.04 2.11-.15 3.85.47 5.31 1.9 2.32 2.27 4.26 4.79 4.83 8.12.11.68.33 1.33.47 2.01.38 1.91.72 3.83 1.1 5.73.37 1.84 1.98 2.98 2.8 4.63-5.15 1.36-5.87 1.06-8.89-2.78-3.68-4.68-7.06-9.57-10.37-14.52-.95-1.42-1.63-2.96-2.52-5.06z"/><path class="cls-2" d="M432.99 419.53c2.34-.38 4.27.89 5.55 3.66 1.01 2.18 2 4.35 2.71 6.65.5 1.64.12 2.83-1.15 3.95-3.21 2.85-10.08 3.41-13.57 1.02-.47-.32-1.06-.62-1.07-1.25-.05-2.52-1.85-3.84-3.54-5.19-1.46-1.17-1.19-2.08-.09-3.36 3.64-4.21 6.13-5.59 11.16-5.49zm-5.3 12.14c3.23 2.33 8.91 1.04 10.29-2.34-1.71.65-3.24 1.37-4.92 1.61-1.72.25-3.57-.19-5.36.72zm43.13-8.06c1.46.8 1.7 1.98 1.17 3.48-.52 1.44-1.44 2.31-2.99 2.41-.8.05-1.6.05-2.4.02-3.01-.13-2.87-.16-3.4-3.25-.9-5.24-2.45-10.27-6.51-14.03-1.21-1.12-1.06-1.89-.31-3.17 1.16-1.95 1.78-4.19 3.27-5.99.97-1.17 1.62-1.18 2.68-.02 3.67 4 5.65 8.81 7.03 13.93.59 2.19.99 4.44 1.47 6.66-1.85.4-3.01 1.59-4.13 3.45 2.69-.12 3.28-1.94 4.1-3.49zm-72.9 14.31c-1.76.08-3.65-.42-5.55-.88-1.75-.42-3.29-1.44-4.07-2.96-1.59-3.08-4.18-5.1-6.78-7.16-1.67-1.32-1.71-1.76-.08-3.12 3.15-2.63 6.86-2.68 10.67-2.13.29.04.61.33.77.6 1.63 2.7 4.21 4.51 6.38 6.69 1.56 1.56 2.84 3.31 3.76 5.3.92 2.01.67 2.44-1.49 3.24-1.11.41-2.24.44-3.6.42zm1.4-5.01c-1.21-.25-2.22.48-3.32.6-1.1.12-2.39-.34-3.5.77 3.76 1.48 5.11 1.19 6.82-1.36zm-.34-9.18c3.93-1.99 7.77-1.93 11.71-.87 5.43 1.46 8.25 5.74 11.03 10.09.68 1.06.35 1.82-.51 2.67-4.18 4.14-11.68 2.72-13.96-2.68-1.15-2.73-3.34-4.59-5.54-6.42-.94-.79-2.03-1.41-2.73-2.78zm18.42 8.32c-2.19 1.02-4.69.37-7.14 1.32 3.21 1.66 4.78 1.41 7.14-1.32zm-74.66 9.16c2.84-6.14 9.14-8.29 14.55-5.39 3.99 2.14 6.62 5.52 9.05 9.17.66 1 .41 1.67-.27 2.41-1.81 1.95-3.87 3.54-6.29 4.68-1.18.55-1.99.31-2.38-.97-.6-2-1.63-3.76-2.87-5.43-2.36-3.18-5.42-4.81-9.44-4.48-.67.06-1.36 0-2.36 0zm20.11 2.55c-1.73 1.7-3.1 3.02-4.41 4.38-.18.18-.19.65-.1.93.12.35.53.38.87.31 2.16-.43 3.84-2.76 3.64-5.63zm172.13-84.7c5.26-3.03 6.98-2.98 10.99.29 4.11 3.35 6.44 7.83 6.83 13.02.68 8.91-7.69 13.76-13.8 13.15-2.36-.24-3.85-1.71-5.33-3.53.96-.93 2.04-.55 2.97-.58 4.24-.13 7.74-1.7 10.55-4.92 1.64-1.88 2.28-3.96 1.68-6.34-1.35-5.4-5.08-8.5-10.15-10.2-1.07-.36-2.21-.52-3.73-.87z"/><path class="cls-3" d="M683.01 494.26c-.15-.54-.15-1.18-.47-1.59-2.39-3.1-2.94-6.72-3.07-10.47 1.47.11 2.96.1 4.42.33 7.74 1.23 15.52.9 23.39.77-.37.46-.05-.05.02.4.01.1 0 .27-.05.3-6.17 2.69-12.3 5.5-18.56 7.98-1.89.75-3.66 1.82-5.66 2.28z"/><path class="cls-2" d="M352.26 652.06c.72-1.64 2.33-2.06 3.78-2.56 1.72-.59 2.71.61 3.66 1.84 1.76 2.28 1.82 2.34 4.33.97 5.41-2.94 11.18-5.1 16.68-7.87 2.11-.67 4.16-1.57 6.46-1.43 1.12.07 2.26-.01 3.04 1.02-3.83.92-7.35 2.47-10.55 4.81-1.38 1.01-2.96 1.78-4.53 2.45-5.64 2.41-10.81 5.55-15.38 9.65-.84.75-1.63 1.63-2.92 2.06-.47-1.17.49-1.88.81-2.73.28-.75.7-1.44 1.03-2.18.81-1.8.95-3.59-.4-5.18-1.37-1.61-3.11-1.76-5-.97-.3.12-.67.07-1.01.1zm171.65-278.37c1.89 1.27 2.08 2.29.47 3.39-1.32.9-2.79 1.56-4.38 1.88-4.39.9-7.03-.61-7.52-5.03-.8-7.41-1.75-7.07 6.12-9.33 1.66-.48 3.36-.63 5.07-.72 1.42-.07 2.07.71 1.41 1.87-1.44 2.54-1.03 5.26-1.19 7.94-1.93.13-3.58 1.43-5.57 1.33-.55-.03-1.21.12-1.17.88.03.66.64.88 1.18 1.03 2.18.59 4.23-.62 5.57-3.24z"/><path class="cls-6" d="M765.01 452.25c-1.43-.22-2.71.38-4 .81-16.25 5.5-32.96 7.45-49.98 6.52 1.49-.82 1.49-.85 3.08-.91 4.81-.18 9.62-.45 14.43-.48 6.95-.05 13.66-1.25 20.24-3.42 8.58-2.83 17.18-5.61 25.77-8.41-1.3 1.28-7.27 5.15-8.87 5.75-.34-.32-.55-.18-.69.19l.02-.05z"/><path class="cls-2" d="M499.72 386.19c-2.27-.67-3.59-2.62-5.23-4.08-1.09-.98-1.1-2.64-.53-4.18.94-2.5 2.67-4.2 5.04-5.3 1.84-.85 2.36-.68 3.15 1.16 1 2.31 1.58 4.75 1.81 7.26.18 1.93.33 3.86.54 5.78.33 2.95.35 2.95-3 4.06-.57-1.14-1.25-2.26-1.17-3.67.67.07 1.59.24 1.36-.81-.47-2.12-1.39-4.06-3.29-5.33-.48-.32-1.07-.9-1.65-.05 1.05 1.7 2.93 2.89 2.95 5.15zm31.72-22.45c2.98-2.92 3.85-3.03 6.44-.93 2.28 1.85 3.82 4.28 4.96 6.9 1.62 3.74-1.38 9.25-5.39 9.99-2.64.49-4.12-1.32-5.75-3.53 3.87-1.01 6.51-3.08 6.3-7.05-.2-3.73-3.29-4.77-6.56-5.38zm-190.12 93.6c-1.97-.16-3.62.2-4.1-1.86-.51-2.2.31-4.15 2.26-5.06 1.86-.87 3.75-1.68 5.63-2.5 2.2-.95 4.47-.92 6.72-.26 1.72.5 2.07 1.26 1.03 2.77-2.91 4.19-7.06 6.32-11.55 6.92zm.66-3.33c4.17 1.04 6.61-.58 7.13-4.19-2.07 1.65-4.12 2.98-7.13 4.19zm194.94 229.08c1.56.62 2.22 2.16 3.27 3.29 2.46 2.66 4.77 5.45 7.58 7.77 1.61 1.33 3.3 1.95 5.31.97 1.43.13 1.4 1.39 1.62 2.3.55 2.21.96 4.46 1.54 7.25-1.69-1.47-1.98-3.17-2.77-4.53-1.51-2.58-3.22-3.29-5.98-2.15-.83.34-1.51 1.12-2.26-.12-2.73-4.51-5.5-8.99-8.24-13.49-.24-.4-.33-.84-.06-1.29z"/><path class="cls-3" d="M636.08 525.23c3.73 4.84 6.93 9.97 11.5 13.36.08.95-.29 1.08-.59 1.17-7.11 2.08-5.76 3.11-8.78-4.3-1.11-2.73-1.65-5.69-2.44-8.54-.12-.43-.2-.86.32-1.69zm38.69-51.63c.14-.75.51-1.29 1.34-1.27 5.06.1 9.92-1.27 14.87-1.98.18-.03.4.17.81.36-.75 1.69-3.82 1.65-3.3 4.2-4.67.59-9.27.46-13.72-1.3z"/><path class="cls-5" d="M597.73 557.04c-5.95 1.29-11.98 2.07-18.04 2.6 4.45-1.94 9.13-3.12 13.83-4.25 2.05-.49 3.25-.04 4.21 1.65z"/><path class="cls-2" d="M527.94 368.45c.14-.73-.11-1.54.76-2.08 1.83-1.15 3.08-.7 3.43 1.4.29 1.79-.26 3.39-1.25 4.85-.49.73-1.15.64-1.69 0-1.02-1.2-1.21-2.67-1.25-4.17zm-28.22 17.74c-.02-2.26-1.9-3.45-2.95-5.15.57-.85 1.17-.27 1.65.05 1.9 1.26 2.82 3.2 3.29 5.33.23 1.05-.7.88-1.36.81l.08-.02c-.02-.5-.15-.92-.71-1.06l.02.05z"/><path class="cls-3" d="M621.48 510.54c.57-1.24.93-2.04 1.42-3.11 1.49 1.1 2.32 2.37 3.07 4.31-1.66-.44-2.91-.78-4.49-1.2z"/><path class="cls-2" d="M470.82 423.61c-.83 1.56-1.42 3.37-4.1 3.49 1.12-1.86 2.27-3.05 4.13-3.45l-.02-.05z"/><path class="cls-3" d="M891.81 323.42q-3.26-1.32-3.23-4.4c1.55 1.12 2.6 2.61 3.23 4.4zm-245.8 487.66c-1.94-1.98-4.62-2.85-6.76-4.57-5.35-4.3-11.14-7.99-17.07-11.41-3.01-1.73-5.83-4.01-9.48-4.43-6.64-3.48-13.64-5.88-21.05-7.03-1.24-.19-2.49-.37-3.74-.5-.35-.04-.64.07-.81.34-.05-.44-.55-.6-1.04-.65-.66-.07-1.34-.22-1.95.23.18.84.97.84 1.55 1.09.46.2 1.01.32 1.29-.09.04.3.34.39.55.53.28.19.62.3.94.42 7.64 2.95 14.6 7.19 21.3 11.8 12.15 8.35 23.2 17.93 31.85 30.03 2.12 2.96 4.13 5.99 5.85 9.18.85-.42.92-.98.94-1.54.27-6.06.37-12.13.85-18.17.22-2.78-.79-4.32-3.21-5.24z"/><path class="cls-5" d="M644.07 486.01c.72.44.95 1.1.89 1.9-1.32-.15-1.12-1.02-.89-1.9z"/><path class="cls-2" d="M535.53 681.01c.83.46 1.44 1.07 1.41 2.11-1.29-.15-1.39-1.11-1.41-2.11z"/><path class="cls-3" d="M309.34 674.57l.3 1.4c-.24.68-.72 1.01-1.45.94.1-.92.27-1.8 1.15-2.34z"/><path class="cls-5" d="M641.28 480.53c.7.42 1.03 1.04.95 1.85-1.31-.11-1.19-.95-.95-1.85zm172.03-60.6c.28-.58.76-.94 1.26-.4.29.32.04.84-.49 1-.26-.2-.52-.4-.77-.6z"/><path class="cls-2" d="M350.25 653.5c.35-.95.94-1.58 2.05-1.47-.4.89-.92 1.61-2.05 1.47z"/><path class="cls-4" d="M652.41 547.37c-.7.96-1.71.79-2.69.76.76-.75 1.72-.79 2.69-.76z"/><path class="cls-5" d="M792.75 338.18c-.03.07-.06.21-.09.21-.3 0-.37-.12-.18-.28.04-.03.17.05.27.08z"/><path class="cls-4" d="M767.26 495.65c-.33.63-.83.93-1.55.77.22-.86.85-.87 1.55-.77z"/><path class="cls-2" d="M293.02 700.96c.11.57-.19.72-.68.69l.05.04c.08-.38.31-.61.69-.68l-.06-.05zm-1.35 1.39c.24-.22.48-.44.72-.65l-.05-.04c.01.49-.27.65-.71.65l.04.04zm-.05-.04c-.01.08-.03.16-.04.25.03-.07.06-.13.09-.2l-.05-.04zm33.83-20.6c-.06.07-.11.14-.17.2.07-.05.14-.11.21-.16l-.04-.05zm209.41-1.72c.45.22.74.55.71 1.08-.58-.13-.73-.55-.71-1.08z"/><path class="cls-5" d="M472.89 678.27c-.06.09-.13.28-.17.27-.23-.05-.18-.16.15-.28h.01z"/><path class="cls-3" d="M764.99 452.29c.14-.38.35-.51.69-.19-.23.06-.46.13-.69.19z"/><path class="cls-5" d="M502.43 610.65l.42-.27c-.08.14-.17.29-.25.43l-.17-.16z"/><path class="cls-3" d="M308.23 676.85c-.13.25-.26.5-.39.74-.05-.34.09-.58.39-.74z"/><path class="cls-5" d="M816.05 418.55l-.39.42c-.45-.42.04-.43.25-.55l.13.13zm-.13-.13c.14-.09.27-.18.41-.27-.09.13-.18.27-.28.4l-.13-.13zM536.35 803.44c-.39.04-.64-.09-.66-.52.22.17.44.35.66.52z"/><path class="cls-1" d="M418.38 386.63c-.35 1.1-.68.35-1.02 0 .34-.35.68-.35 1.02 0z"/><path class="cls-2" d="M499.7 386.14c.56.14.69.56.71 1.06-.62-.1-.89-.43-.71-1.06zM349.54 654.17c-.09-.58.23-.74.74-.7.11.61-.11.87-.74.7z"/><path class="cls-3" d="M671.84 660.19c.16-.1.39-.33.45-.29.36.22.25.49-.02.73-.15-.14-.29-.29-.44-.44z"/><path class="cls-2" d="M549.09 817.79l-.22.05.03-.16.19.11z"/><path class="cls-1" d="M350.51 598.6c-1.11.06-1.78-.43-2.31-1.5-1.59-3.23-2.58-6.58-2.79-10.2-.5-8.93 1.76-17.49 3.38-26.15 2.09-11.13 6.4-21.29 13.15-30.33 3.9-5.22 8.22-10.15 12.57-15 6.13-6.83 11.9-13.94 17.78-20.97 5.82-6.95 11.53-13.96 16.38-21.63 2.7-4.26 5.32-8.57 7.97-12.86.73-1.18 1.48-2.35 2.69-3.08 1.98-1.2 3.6-.38 3.93 1.92.43 2.99-.69 5.67-1.79 8.29-3.68 8.77-7.81 17.33-12.67 25.51-3.75 6.33-8.38 12.02-13.07 17.65-4.77 5.72-9.91 11.1-15 16.55-7.9 8.45-15.77 17.08-20.63 27.73-4.62 10.11-8.15 20.68-9.7 31.75-.48 3.46-.61 7.09.26 10.61.14.55.23 1.13-.18 1.71zm165.92 196.12c-2.76-.85-5.53-1.7-8.29-2.56-.11-.33-.36-.57-.65-.31-.14.13-.04.53-.05.82-.29 3.11-.98 3.71-3.77 3.1-2.49-.54-4.74-1.66-6.9-2.99-3.81-2.34-7.64-4.63-11.47-6.93-2.88-1.74-6.02-2.78-9.3-3.45-1.16-.24-1.79.16-1.42 1.48.37 1.3 1.08 2.75-.43 3.73-1.4.92-2.65-.08-3.82-.74-4.85-2.76-8.76-6.62-12.38-10.79-4.74-5.46-9.75-10.64-15.06-15.53-1.18-1.09-2.28-2.25-4.18-1.88-.99.19-1.83-.49-2.23-1.33-3.18-6.67-7.31-12.97-8.07-20.59.64 0 1.27-.02 1.91-.03 2.86 3.42 3.7 7.86 5.9 11.62.52.89 1.01 1.81 1.35 2.78.66 1.87 1.7 2.89 3.87 3.21 2.43.35 4.15 2.3 5.89 4 6.23 6.1 12.73 11.92 18.49 18.49.68.77 1.55 1.37 2.25 2.12 1.2 1.29 2.2 1.64 3.53 0 .92-1.13 2.5-.97 3.89-.93 5.32.15 10.02 2.37 14.63 4.69 4.2 2.11 8.23 4.55 12.29 6.92 1.24.72 2.24.95 3.79.58 3.63-.87 6.98.58 10.18 2.22 0 .77.02 1.53.03 2.3z"/><path class="cls-3" d="M516.43 794.72c0-.77-.02-1.53-.03-2.3 1.79.06 3.02.92 3.66 2.6-1.26.53-2.5.71-3.64-.31zm-86.1-57.98l-1.91.03c-.39-.77-.28-1.5.2-2.19.85.5 1.7 1 1.71 2.16z"/><path class="cls-4" d="M772.11 556.72c-.09.03-.2.11-.28.09-.31-.06-.34-.2-.08-.33.08-.04.2 0 .29.03.04.02.05.13.07.2zm-3.06.85c.21-.46.58-.59 1.05-.46.09.02.22.19.2.24-.2.46-.59.54-1.04.48l-.21-.25z"/><path class="cls-6" d="M719.56 331.12c-.41-7.39 6.11-13.17 13.21-13.3 6.36-.12 13.26 6.86 13.11 13.69-.13 6.07-5.84 13.15-13.27 13.18-5.91.02-13.76-5.57-13.04-13.57zm14.48-5.51c-4.81.53-7.1 2.5-7.82 6.19-.59 3.06.96 6.28 3.77 7.81 2.93 1.6 6.48 1.1 8.88-1.26 2.39-2.34 2.8-5.47 1.14-8.75-1.58 3.17-2.12 3.92-3.31 4.63-1.72 1.03-3.51 1-4.8-.09-1.28-1.07-1.58-2.83-.92-4.72.51-1.47 1.68-2.4 3.06-3.82zm-66.24 9.65c-.06 1.38-1.31 2.6-2.68 2.61-1.38 0-2.69-1.3-2.62-2.6.09-1.56 1.5-2.97 2.85-2.84 1.36.13 2.51 1.46 2.45 2.83zm15.58-19.31c1.35.04 2.53 1.54 2.44 3.12-.09 1.6-1.01 2.39-2.69 2.29-1.47-.1-2.78-1.57-2.63-2.95.13-1.16 1.69-2.49 2.87-2.46zm24.45 41.3c-.01 1.64-.73 2.54-2.05 2.57-1.48.03-2.69-1.24-2.73-2.87-.04-1.67.86-2.54 2.51-2.45 1.57.09 2.28.95 2.27 2.75zm-82.59-29.72c1.36.08 2.09 1.04 2.02 2.63-.08 1.79-1.49 3.14-3.08 2.93-1.3-.17-2-1.22-1.85-2.79.15-1.64 1.43-2.85 2.9-2.77zm21.95-1.84c.03-1.6 1.31-2.98 2.5-2.93 1.13.05 2.29 1.39 2.22 2.56-.1 1.61-1.42 3.01-2.74 2.86-1.62-.18-1.73-1.51-1.98-2.5zm-9.12 39.28c.22.63.6 1.26.64 1.9.09 1.42-1.12 2.62-2.49 2.58-1.39-.03-2-.88-2.01-2.18 0-.55.12-1.11.19-1.67 1.09-.99 2.37-.85 3.67-.63zm69.48-30.04c.08 1.17-.87 2.22-2.05 2.28-1.46.07-2.06-.86-2.29-2.08-.26-1.37.76-2.7 1.93-2.68 1.2.01 2.32 1.17 2.41 2.48zm-88.67 9.44c.04 1.02-1.39 2.3-2.58 2.31-1.09.01-2.23-1.33-2.19-2.61.04-1.2.66-1.91 1.87-2.04 1.31-.14 2.85 1.12 2.9 2.34zm27.59 1.98c-.12 1.03-.6 1.74-1.7 1.8-1.06.06-2.33-1.24-2.11-2.24.23-1.06.8-1.93 2.12-1.76 1.08.14 1.77 1.05 1.69 2.21zm-37.28-18.73c1.26.08 1.51.91 1.45 1.91-.06 1.17-.58 2.03-1.86 1.92-1.09-.09-1.53-.9-1.49-1.93.05-1.22.71-1.86 1.89-1.9zm98.41-9.73c.89.04 1.64.36 1.44 1.38-.2 1.05-.88 1.9-2.07 1.8-.91-.08-1.24-.87-1.21-1.74.04-1.18.83-1.47 1.84-1.45z"/><path class="cls-1" d="M588.64 483.4c-5.8-2.12-11.88-2.26-17.94-2.45-.23-.33-.45-.31-.64.04-4.95.9-9.88 1.9-14.87 2.66-6.71 1.02-13.3.32-19.74-1.23-4.87-1.17-9.4-1.77-13.93.89-1.49.88-3.19 1.11-4.99.74-7.29-1.48-14.59-2.93-22.05-3.39-.53-.03-1.06-.26-1.85-.46 1.16-1.2 2.49-.99 3.67-1.22 2.28.41 4.57.11 6.85.1 4.02-.02 8 .15 11.92 1.21 2.05.56 4.12.46 5.97-.72 4.63-2.96 9.53-2.86 14.54-1.33 4.73 1.44 9.64 1.9 14.48 2.62 2.08.31 4.32-.16 6.45-.5 4.28-.7 8.51-1.9 12.82-2.26 6.3-.53 12.53.18 18.37 2.94 1.1.52 1.71 1.15.93 2.37z"/><path class="cls-3" d="M507.45 792.68c0-.28-.1-.68.05-.82.28-.26.53-.02.65.31l-.69.51zm62.61-311.69c.19-.35.41-.37.64-.04l-.31.14-.33-.1z"/><path class="cls-2" d="M497.67 397.37c.23 3.22-3.04 6.24-5.82 5.82-.2-.03-.45-.17-.55-.33-.19-.31-.1-.69.18-.9.45-.33.93-.63 1.44-.87 1.83-.86 3.65-1.73 4.74-3.72zm-11 14.24c-.62 3.79-2.93 5.99-6.55 6.91-.63.16-1.49.39-1.84-.37-.42-.91.51-1.14 1.08-1.39 2.23-.97 4.35-2.08 5.62-4.27.41-.72 1.27-.34 1.7-.88zm-29.53 16.26c-1.31 3.24-4.82 5.02-7.87 4.32-.49-.11-.91-.35-.97-.81-.06-.47.29-.84.78-.95.89-.19 1.78-.36 2.68-.51 1.91-.32 3.7-.94 5.38-2.06zm-84.04 10.79c1.02-1.4 2.37-1.36 3.48-1.81 1.11-.45 2.21-.93 3.42-1.44-.92 3.04-3.22 4.14-6.9 3.25zm54.59-6.98c1.79-.92 3.64-.47 5.36-.72 1.68-.25 3.21-.96 4.92-1.61-1.38 3.38-7.06 4.66-10.29 2.34zm-28.37 1.23c-1.71 2.55-3.06 2.84-6.82 1.36 1.1-1.11 2.4-.65 3.5-.77s2.11-.84 3.32-.6zm18.07-.85c-2.37 2.73-3.93 2.97-7.14 1.32 2.46-.95 4.96-.3 7.14-1.32zm-54.54 11.7c.2 2.87-1.47 5.2-3.64 5.63-.34.07-.75.04-.87-.31-.09-.28-.08-.75.1-.93 1.31-1.37 2.68-2.68 4.41-4.38zm161.06-70.07c-1.33 2.62-3.39 3.83-5.57 3.24-.54-.15-1.15-.37-1.18-1.03-.04-.76.62-.91 1.17-.88 2 .1 3.64-1.2 5.57-1.33zm-181.94 80.33c3.01-1.21 5.06-2.54 7.13-4.19-.52 3.61-2.96 5.23-7.13 4.19z"/><path class="cls-1" d="M734.04 325.61c-1.38 1.42-2.55 2.36-3.06 3.82-.65 1.89-.36 3.64.92 4.72 1.3 1.08 3.08 1.12 4.8.09 1.18-.71 1.72-1.46 3.31-4.63 1.66 3.28 1.25 6.41-1.14 8.75-2.4 2.36-5.95 2.86-8.88 1.26-2.81-1.53-4.36-4.75-3.77-7.81.71-3.69 3.01-5.66 7.82-6.19z"/><path class="cls-3" d="M829.72 379.65c-6.65 0-12.1 4.48-12.66 10.18-7.36 2.01-14.96 3.01-22.75 3.17-1.03.02-2.08.02-3.07.26-11.81 2.81-23.81 3.49-35.87 3.12-6.69-.21-13.26-1.44-18.93-5.4-1.36-.95-2.03-.26-2.86.64-3.12 3.36-6.18 6.79-9.43 10.02-5.61 5.58-11.47 10.9-18.22 15.13-2.41 1.51-4.97 2.33-7.85 1.67-.06 1.6-1.39 1.97-2.5 2.45-5.15 2.24-10.57 3.46-16.09 4.33-1.79.28-3.61.46-5.29 1.22 7.95 9.25 16.22 18.18 26.21 25.32.71-.08 1.21.4 1.76.71.23.13.35.47.55.77-1 .44-1.73.06-2.44-.47-3.72-1.09-6.95-3.16-10.11-5.28-8.52-5.73-15.34-13.32-22.3-20.74-4.21 1.1-8.56 1.24-12.84 1.87-8.05 1.19-15.96 2.97-23.56 5.89-2.54.98-4.87 2.5-7.3 3.76.49 1.69 1.62 3.02 2.64 4.39 10.82 14.58 25.02 24.34 42.34 29.61 1.84.56 3.61 1.47 5.62 1.33.14-.75.51-1.29 1.34-1.27 5.06.1 9.92-1.27 14.87-1.98.18-.03.4.17.81.36-.75 1.69-3.82 1.65-3.3 4.2 3.78.49 7.57.22 11.31-.15 20.57-2.07 40.03-7.77 57.95-18.24 2.42-1.41 5.19-2.26 7.26-4.26-1.43-.22-2.71.38-4 .81-16.25 5.5-32.96 7.45-49.98 6.52 1.49-.82 1.49-.85 3.08-.91 4.81-.18 9.62-.45 14.43-.49 6.95-.05 13.66-1.25 20.24-3.42 8.58-2.83 17.18-5.61 25.77-8.41 13.81-7.11 26.97-15.22 38.87-25.27.37.15.79.24 1.24.24 1.48 0 2.68-.92 2.68-2.06s-1.2-2.06-2.68-2.06-2.68.92-2.68 2.06c0 .47.21.9.55 1.24-3.7 2.73-7.68 5.03-11.67 7.28-14.66 8.28-30.46 13.18-47.11 15.37-9.6 1.26-19.21 1.28-28.77-.5-3.64.12-7.18-.45-10.65-1.71 3.55-.65 7.08-.43 10.61.01 10.57.15 21.04-.73 31.5-2.34 22.48-3.46 42.68-12.03 60.66-25.93 4.16-3.22 7.85-6.87 11.19-10.85.47.05.94.07 1.42.07 7.02 0 12.71-4.98 12.71-11.13s-5.69-11.13-12.71-11.13z"/><path class="cls-6" d="M904.87 347.59c-2.95-12.16-7.55-23.6-15.23-33.59-11.49-14.96-26.47-25.19-43.94-31.95-14.61-5.65-29.82-8.88-45.24-11.27-4.41-.69-8.91-.71-13.27-1.77-6.64.02-13.23-.83-19.85-1.11-3.66-.15-7.33-.2-11-.22-6.19-.02-12.4-.24-18.57.09-11.77.62-23.57.77-35.29 2.04-8.3.9-16.63 1.37-24.95 2.02-4.1.32-8.21.73-12.26 1.39-5.31.86-10.68 1.06-16 1.84-7.47 1.09-14.87 2.58-22.32 3.76-5.53.87-11.21 1.35-16.42 3.39-7.34 2.86-15.1 3.55-22.66 5.29-8.35 1.92-16.85 3.21-25.09 5.68-1.74.52-3.46 1.02-5.08 1.85-8.28 2.21-16.56 4.43-24.84 6.63-2.21.59-4.42 1.2-6.75.99-2.06 1.08-4.38 1.36-6.59 1.83-7.63 1.64-15.01 4.18-22.6 5.92-2.42.56-4.33 1.57-5.82 3.81-1.22 1.84-3.33 3.09-5.04 4.61-2.06 1.83-4.24 3.54-6.14 5.52a162.707 162.707 0 01-22.51 19.61c-5.48 3.95-11.14 7.64-16.72 11.44-2.94 2-5.89 3.97-8.84 5.95-.95.64-1.84 1.39-3.02 1.56-.41.91-.53 1.92-1.53 2.55-4.81 3.02-9.57 6.12-14.35 9.18-.18.11-.44.1-.66.15-11.97 8.26-23.6 17.02-35.84 24.89-2.41 1.55-4.71 3.27-7.03 4.96-1.47 1.07-2.93 1.47-4.81 1-4.33-1.08-8.76-1.76-13.08-2.86-6.45-1.65-13.08-2.22-19.59-3.51-6.85-1.36-13.7-2.76-20.6-3.79-4.17-.62-8.4-1.23-12.66-1-3.98.22-4.95 1.07-4.83 4.99.14 4.46.96 8.87 1.52 13.29 1.07 8.39 3.2 16.65 3.25 25.16.01 2.4-.19 4.78-.47 7.19-1.47 12.61-3.73 25.16-3.06 37.95.46 8.74 1.96 17.29 4.52 25.64 1.55 5.03 3.39 9.98 5.14 14.95.83 2.36.96 4.59-.1 7-1.2 2.73-1.38 5.79-1.76 8.72-.41 3.17-.71 6.37-.93 9.58-.4 5.84-.77 11.66-.59 17.52.13 4.24.58 8.44 1.17 12.64.17 1.24.15 2.52.15 3.78.02 6.43.11 12.86-.02 19.29-.07 3.46.96 6.82.72 10.27.99 2.35.96 4.91 1.42 7.36.9 4.72 1.94 9.38 3.86 13.8 2.19 2.41 2 5.78 3.41 8.52.38.73-.32 1.28-.95 1.6-1.48.75-1.97 2.13-2.38 3.59-.64 2.31-1.45 4.58-1.93 6.93-1.8 8.83-6.45 16.32-11.19 23.73-2.69 4.2-5.57 8.32-9.08 11.92-3.08 4.17-6.79 7.75-10.46 11.37-2.45 2.42-5 4.75-6.97 7.59-1.51 2.18-1.59 3.56.05 5.66 4.64 5.97 6.43 6.48 12.88 5.31 4.98-.9 9.79-2.41 14.5-4.23 1.06-.41 2.09-.99 3.3-.77 1.17-1.16 2.73-1.57 4.19-2.14 5.51-2.16 10.96-4.43 16.05-7.5.57-.35 1.26-.51 1.89-.76.29-.56.8-.67 1.36-.68 4.42-2.72 8.82-5.48 13.29-8.12.92-.54 1.96-1.25 3.21-.86 1.1-2.48 3.5-3.32 5.65-4.48.87-.47 1.12.23 1.55.78 1.41 1.8 1.84 4.08 3.24 5.92 2.68 3.5 5.08 7.21 7.6 10.83.6.07.99.41 1.39.87 6.91 8.1 13.75 16.28 21.4 23.7 6.79 6.58 13.64 13.15 22.4 17.2.38.18.64.63.96.96 4.28 1.61 8.07 4.4 12.66 5.29.93.18 1.19.93 1.32 1.79.29 1.93.59 3.86.35 5.82 1.15 3.25 1.13 6.73 1.92 10.07 1.46 6.23 2.86 12.46 4.66 18.61 4.34 14.77 10.1 28.96 17.01 42.68 2.47 4.9 5.31 9.61 9.5 13.37 1.47 1.32 3.23 2.14 4.7 3.42.75.65 2.01.37 3.02.25 5.8-.72 11.08-2.73 15.7-6.38 6.51-5.15 13.46-9.52 21.45-12.04 2.85-.9 5.73-1.43 8.76-1.53 3.64-.11 7.27-.69 10.9-1.08 3.66-.4 7.35-.37 11-.09 9.48.72 18.96.66 28.44.5 1.46-.03 2.92-.49 4.37-.82.77-.18 1.52-.72 2.32-.33 2.22 1.1 3.37-.11 4.45-1.83.54-.86 1.44-1.48 2.06-2.3 1.28-1.69 1.04-3.95-.8-5.03-2.78-1.62-4.66-3.93-6.38-6.56-1.44-2.2-3.18-4.19-5.05-6.06-5.61-5.58-10.27-12.02-16.03-17.47-1.89-1.79-4.29-3.04-6-5.54 2.53-.1 4.47.95 6.49 1.49 7.19 1.89 14.49 3.54 21.45 6.11 12.67 4.68 25.07 9.94 35.87 18.47 7.26 5.74 13.85 12.04 19.15 19.55 3.55 5.04 6.96 10.2 10.49 15.26 2.75 3.94 5.79 7.67 8.48 11.65 2.95 4.36 5.74 8.84 8.39 13.39 1.13 1.95 2.59 2.78 4.71 2.79 1.15 0 2.3.04 3.44.01 4.24-.09 5.38-.9 5.96-5.05.81-5.76 1.84-11.48 2.31-17.3.49-6.15.72-12.33 1.41-18.45.71-6.24.84-12.53 1.78-18.75.2-1.35.14-2.75.13-4.12-.03-4.59.83-9.1 1.19-13.65.42-5.24.97-10.46 1.53-15.69.65-6.01 1.49-12.01 1.91-18.04.31-4.46.76-8.91 1.59-13.27.64-3.36.07-6.84 1.3-10.09.11-2.5.22-4.99.32-7.49-.32-1.45-.66-2.91.42-4.22.58-5.79 1.65-11.5 2.87-17.19 1.91-8.91 3.54-17.9 6.06-26.67 2.02-7.01 4.16-13.98 6.31-20.95 3.6-11.67 8.11-23.04 11.47-34.79.38-1.33.87-2.6 1.58-3.79.06-2.46 1.17-4.66 1.86-6.95 2.13-7.14 4.59-14.18 6.65-21.34 1.2-4.16 2.52-8.22 4.58-12.02 1.38-5.57 3.92-10.6 7.07-15.35.94-2.85 2.52-5.38 3.94-8 1.2-2.21 2.42-4.43 3.44-6.73 1.69-3.82-.5-9.09-4.29-10.66-1.07-.44-2-.05-2.98.33-8.22 3.17-16.28 6.73-24.11 10.76-8.55 4.4-17.17 8.67-25.27 13.88-5.59 3.59-11.07 7.34-16.61 11-1.24.82-2.54 1.56-3.81 2.33-6.06 4.51-12.12 9.02-18.17 13.54-9.07 6.79-18.14 13.58-26.67 21.07-10.67 9.38-21.21 18.89-31.8 28.35-5.04 4.5-10.57 8.42-16.29 12.03-1.64 1.03-3.44 1.85-5.24 2.58-4.16 1.67-6.57 1.23-9.48-2.23-7.62-9.05-16.1-17.27-24.4-25.66-3.16-3.19-6.58-6.04-10.19-8.68-2.3-1.68-2.43-1.94-.84-4.36 3.33-5.1 7.45-9.57 11.37-14.2.74-.87 1.51-1.73 2.26-2.59 0-.6.24-1.09.64-1.53 3.01-3.31 6-6.63 9.01-9.95.39-.43.83-.8 1.48-.6 10.87-11.8 24.3-19.99 38.45-27.15 2.56-1.3 5.4-1.86 8.11-2.73 4.45-1.94 9.12-3.12 13.83-4.25 2.05-.49 3.25-.04 4.21 1.65 2.66 1.07 5.41.73 8.12.39 14.89-1.84 29.41-5.39 43.86-9.3.76-.75 1.71-.79 2.69-.76 5.27-2.21 10.13-5.17 15.02-8.08 2.09-1.24 4.5-1.86 6.85-2.12 4.64-.52 8.9-2.19 13.03-4.1 10.71-4.93 21.34-10.03 31.95-15.18 7.09-3.45 14.23-6.8 21.38-10.12 7.25-3.36 14.4-6.94 21.61-10.39 1.09-.52 2.1-1.46 3.48-.97.22-.83.85-.84 1.54-.75 3.57-1.81 7.15-3.62 10.72-5.43 1.66-1.62 3.85-2.4 5.85-3.38 7.87-3.87 15.58-7.99 23.05-12.59 1.36-.84 2.74-1.64 4.28-2.1.78-1.44 2.36-1.75 3.59-2.53 15.11-9.67 29.74-20.05 43.91-31.02 6.66-5.16 13.13-10.6 19.17-16.55 3.66-3.61 7.21-7.32 10.7-11.08 3.33-3.58 6.17-7.62 8.8-11.77.36-.57.61-1.25 1.35-1.47-.04-1.34.79-2.34 1.38-3.43 4.58-8.52 7.2-17.59 7.22-27.29.01-6.55-.87-13.03-2.41-19.4zm-306.63-23.31c.05-1.59.7-2.2 2.09-2.61 4.19-1.23 8.53-1.64 12.81-2.39 6.3-1.1 12.62-2.09 18.92-3.19 5.62-.99 11.27-1.74 16.96-2.29 4.2-.41 8.37-1.1 12.56-1.64 2.94-.38 5.89-.75 8.84-1.04 7.17-.72 14.39-.91 21.58-1.24 7.42-.34 14.88-.56 22.34.26 4.2.46 8.49.08 12.73.22 13.4.47 26.65 2.05 39.68 5.41 6.09 1.57 12.36 2.41 18.45 3.97 8.32 2.13 16.77 3.57 25.19 5.18 1.34.26 2.65.69 3.96 1.1.58.18.98.67.89 1.31-.09.67-.66.89-1.27.91-3.44.12-6.79.92-10.19 1.33-6.31.76-12.28 2.81-18.24 4.79-8.15 2.71-16.31 5.44-24.14 9.03-7.52 3.44-14.84 7.25-22.17 11.07-7.64 3.99-14.59 9.05-21.76 13.77-6.85 5.27-12.92 11.37-18.27 18.12-3.6 4.54-5.83 9.84-7.17 15.49-1.41 5.96-.24 11.11 4.61 15.17.51.42 1.22.68 1.44 1.41 2.87.66 5.43-.16 7.85-1.67 6.75-4.23 12.61-9.55 18.22-15.13 3.25-3.23 6.31-6.66 9.43-10.02.83-.9 1.5-1.59 2.86-.64 5.67 3.96 12.24 5.19 18.93 5.4 12.06.38 24.07-.31 35.87-3.12.99-.24 2.05-.24 3.07-.26 13.02-.26 25.49-2.85 37.23-8.65 1.41-.7 2.78-1.62 4.46-1.61.53-.41 1.13-1.03 1.77-.66.72.42.22 1.21.03 1.79-.94 2.87-1.74 5.79-3.24 8.44.08 1.39-.84 2.35-1.54 3.35-4.49 6.43-9.68 12.2-15.91 17.02-17.98 13.9-38.18 22.48-60.66 25.93-10.46 1.61-20.93 2.49-31.5 2.33-3.53-.44-7.05-.67-10.61-.01 3.47 1.27 7 1.84 10.65 1.71 9.56 1.77 19.17 1.76 28.77.5 16.65-2.18 32.45-7.09 47.11-15.37 4.27-2.41 8.53-4.86 12.44-7.86.28-.58.76-.94 1.26-.4.29.32.04.84-.49 1-12.06 10.31-25.46 18.58-39.53 25.83-1.3 1.28-7.26 5.14-8.87 5.75-.23.06-.46.13-.69.19l.02-.05c-2.07 2-4.84 2.85-7.26 4.26-17.92 10.47-37.38 16.17-57.95 18.24-3.74.38-7.53.64-11.31.15-4.67.59-9.27.46-13.72-1.3-2.01.14-3.78-.78-5.62-1.33-17.32-5.27-31.52-15.03-42.34-29.61-1.02-1.37-2.15-2.7-2.64-4.39-2.49-4.4-3.65-9.32-5.3-14.04-1.05-3.02-1.88-6.11-2.88-9.15-.39-1.18-.75-2.35-1.44-3.45-2.43-3.9-3.3-8.34-3.06-12.8.37-6.71 1.04-13.43 2.56-20 .79-3.44 1.66-6.89 3.49-9.98.26-2.68 1.6-4.97 2.6-7.39 2.49-6.01 5.06-11.99 8.72-17.42.6-.88 1.73-2.07.63-3.03-1.17-1.02-2.03.4-2.81 1.14-3.25 3.05-4.85 7.18-6.94 10.96-3.43 6.21-5.95 12.86-8.77 19.36-1.17 4.7-2.51 9.36-3.58 14.16-1.86-3.67-2.96-7.4-3.11-11.39-1.62-3.84-1.88-7.99-2.55-12.02-1.02-6.08-1.96-12.19-2.55-18.33-.66-6.84-1.15-13.7-.94-20.6zm194.51 13.89c-.03.07-.06.21-.09.21-.3 0-.37-.12-.18-.28.04-.03.17.05.27.08zm-2.08.77c-2.25 1.04-4.25 2.58-6.78 2.98-9.63 3.56-17.52 9.97-25.76 15.81-11.01 7.81-20.53 17.2-29.24 27.49-6 7.09-12.19 14.02-18.9 20.46-2.57 2.46-5.32 4.71-8.31 6.66-1.84 1.2-2.88.89-3.85-1.06-.95-1.91-1.06-3.96-.73-6.05.89-5.6 3.55-10.43 6.91-14.82 4.9-6.4 10.69-11.99 17.11-16.86 12.02-9.12 25.01-16.61 38.87-22.6 5.02-2.17 9.91-4.65 14.92-6.84 2.92-1.27 5.97-2.25 8.96-3.36 2.08-1.19 4.32-1.83 6.79-1.8zM642.23 482.37c-1.31-.11-1.19-.95-.95-1.85-1.99-4.32-4.01-8.63-5.96-12.97-.55-1.22-1.29-2.42-1.22-3.88 1.16-.11 1.8.62 2.46 1.14 10.21 8.07 22.17 12.26 34.53 15.52 2.76.73 5.59 1.25 8.38 1.86 1.47.11 2.96.1 4.42.33 7.74 1.23 15.52.9 23.39.77-.37.46-.05-.05.02.4.01.1 0 .27-.05.29-6.17 2.69-12.3 5.5-18.56 7.98-1.89.75-3.66 1.82-5.66 2.28-4.2 2.34-8.46 4.6-12.59 7.06-3.99 2.38-8.51 3.39-12.72 5.2-1.8.78-2.78-.28-3.56-1.72-2.28-4.24-4.56-8.47-6.85-12.7-.76-1.41-1.56-2.81-2.34-4.21-1.32-.15-1.12-1.01-.89-1.89l-1.83-3.63zm-66.57-52.12c-.02-2.63-.04-5.28-.25-7.9-.37-4.49-1.11-8.9-4.89-12.47.66-.28.86-.41 1.08-.46 2.02-.39 4.3-1.52 6-.94 1.98.68 1.39 3.57 1.93 5.47 3.34 11.68 7.02 23.23 11.42 34.56 1.64 4.22 1.63 4.24-2.92 4.82-2.27.29-4.56.44-6.83.79-1.65.26-2.55-.38-3.19-1.85-.88-2.01-1.54-4.05-1.84-6.23-.74-5.25-.47-10.52-.51-15.79zm-24.03-4.41c-1.38-4.38-3.49-8.24-8.28-10.31 2.92-1.61 5.7-2.16 8.45-2.77 1.6-.36 2.33.77 3.02 1.78 2.66 3.94 3.76 8.3 3.26 13.05-.38 3.65-.76 7.29-1.09 10.94-.33 3.73.5 7.28 1.87 10.73.43 1.09 1.09 2 1.91 2.82 1.12 1.12 2.18 2.3 3.54 3.74-2.51.91-4.75.91-6.95 1.03-1.02.05-1.6-.83-2.19-1.51-2.03-2.37-2.82-5.23-2.86-8.27-.05-4.24.06-8.48.07-12.72 0-2.86.13-5.74-.74-8.52zm-27.73-52.15c1.89 1.27 2.08 2.29.47 3.39-1.32.9-2.79 1.56-4.38 1.88-4.39.9-7.03-.61-7.52-5.03-.8-7.41-1.75-7.07 6.12-9.33 1.66-.48 3.36-.63 5.07-.72 1.42-.07 2.07.71 1.41 1.87-1.44 2.54-1.03 5.26-1.19 7.94zm-6.65 9.02c.78-.18 1.57-.36 2.36-.48 2.87-.45 5.22-1.69 6.74-4.86.43 1 .65 1.4.78 1.83 1.27 4.09 3.93 6.7 8.21 7.34 5.52.83 10.98.67 16.26-1.43 2.86-1.14 5.14-3.01 6.93-5.47 1.56-2.14 2.09-4.62 1.68-7.19-1.73-10.69-10.47-17.85-19.9-17.29-4.25.25-8.09 1.48-11.15 4.61-.78.79-1.4 1.77-2.88 1.01-4.92-2.53-9.82-1.15-14.69.28-.65.19-1.29.49-1.88.85-1.43.88-2.01.21-2.42-1.13-1.86-6.03-3.26-12.18-4.78-18.3-.4-1.62.58-1.89 1.74-2.32 13.75-5.14 27.56-9.99 42.22-12.05 8.04-1.13 15.87-3.51 23.91-4.56.69.88.35 1.82.27 2.7-.99 10.44-.35 20.85.46 31.26 1.1 14.19 2.84 28.29 5.35 42.3.5 2.79.43 2.7-2.47 2.96-10.52.95-20.91 2.69-31.16 5.24-4.72 1.18-8.9 3.65-13.11 5.96-1.46.8-2.14.78-2.86-.8-4.12-9.09-7.85-18.34-11.18-27.74-.74-2.09-.61-2.21 1.56-2.72zm31.61-12.58c-1.35-5.4-5.08-8.5-10.15-10.2-1.07-.36-2.21-.52-3.73-.87 5.26-3.03 6.98-2.98 10.99.29 4.11 3.35 6.44 7.83 6.83 13.02.68 8.91-7.69 13.76-13.8 13.15-2.36-.24-3.85-1.71-5.33-3.53.96-.93 2.04-.55 2.97-.58 4.24-.13 7.74-1.7 10.55-4.92 1.64-1.88 2.28-3.96 1.68-6.34zm-10.98-7.32c2.28 1.85 3.82 4.28 4.96 6.9 1.62 3.74-1.38 9.25-5.39 9.99-2.64.49-4.12-1.32-5.75-3.53 3.87-1.01 6.51-3.08 6.3-7.05-.2-3.73-3.29-4.77-6.56-5.38 2.98-2.92 3.85-3.02 6.44-.93zm-5.76 4.96c.29 1.79-.26 3.39-1.25 4.85-.49.73-1.15.64-1.69 0-1.02-1.2-1.21-2.67-1.25-4.17.14-.73-.11-1.54.76-2.09 1.83-1.15 3.08-.7 3.43 1.4zm-32.43 18.41c-2.26-.68-3.57-2.62-5.2-4.07-1.09-.98-1.1-2.64-.53-4.18.94-2.5 2.67-4.2 5.04-5.3 1.84-.85 2.36-.68 3.15 1.16 1 2.31 1.58 4.75 1.81 7.26.18 1.93.33 3.86.54 5.78.33 2.95.35 2.95-3 4.06-.57-1.14-1.25-2.26-1.17-3.67l.08-.02c-.61-.09-.87-.42-.72-1.02zm-58 36.32c-.77-1.08-.96-1.94-.18-3.09.77-1.13 1.32-2.42 2.06-3.58 1.35-2.12 3.3-3.49 5.7-4.19 2.68-.79 3.31-.56 5.04 1.59 2.44 3.03 3.93 6.44 4.24 10.35.15 1.94.38 3.88.61 5.81.29 2.48-.73 4.26-3.1 4.94-1.31.38-2.71.47-3.96.67-1.71-.28-3.29-.49-4.8-1.12-1.72-.72-2.8-1.62-2.67-3.82.16-2.86-1.33-5.3-2.93-7.56zm-96.6 18.7c-.67.06-1.36 0-2.36 0 2.84-6.14 9.14-8.29 14.55-5.39 3.99 2.14 6.62 5.52 9.05 9.17.66 1 .41 1.67-.27 2.41-1.81 1.95-3.87 3.54-6.29 4.68-1.18.55-1.99.31-2.38-.97-.6-2-1.63-3.76-2.87-5.43-2.36-3.18-5.42-4.81-9.44-4.48zm7.76 9.23c-2.91 4.19-7.06 6.32-11.55 6.92-1.97-.16-3.62.2-4.1-1.86-.51-2.2.31-4.15 2.26-5.06 1.86-.87 3.75-1.68 5.63-2.5 2.2-.95 4.47-.92 6.72-.26 1.72.5 2.07 1.26 1.03 2.77zm12.6-13.34c-2.13-1.79-4.39-3.32-7.07-4.1-1.54-.45-1.77-1.18-.88-2.47 2.51-3.62 5.97-5.56 10.38-5.95.88.14 1.83.14 2.67.45 5.64 2.02 10.31 5.29 13.6 10.43.93 1.45.5 2.33-.62 3.19-1.86 1.42-4.02 2.15-6.26 2.69-2.27.55-4.31.17-6.11-1.37-.17-.15-.46-.36-.59-.31-2.68 1.09-3.64-1.31-5.12-2.56zm16.06-10.17c-1.67-1.32-1.71-1.76-.08-3.12 3.15-2.63 6.86-2.68 10.67-2.13.29.04.61.33.77.6 1.63 2.7 4.21 4.51 6.38 6.69 1.56 1.56 2.84 3.31 3.76 5.3.92 2.01.67 2.44-1.49 3.24-1.11.41-2.24.44-3.6.42-1.76.08-3.65-.42-5.55-.88-1.75-.42-3.29-1.44-4.07-2.96-1.59-3.08-4.18-5.1-6.78-7.16zm20.19-.41c-.94-.79-2.03-1.41-2.73-2.78 3.93-1.99 7.77-1.93 11.71-.87 5.43 1.46 8.25 5.74 11.03 10.09.68 1.06.35 1.82-.51 2.67-4.18 4.14-11.68 2.72-13.96-2.68-1.15-2.73-3.34-4.59-5.54-6.42zm20.21 1.87c-1.46-1.17-1.19-2.08-.09-3.36 3.64-4.21 6.13-5.59 11.16-5.49 2.34-.38 4.27.89 5.55 3.66 1.01 2.18 2 4.35 2.71 6.65.5 1.64.12 2.83-1.15 3.95-3.21 2.85-10.08 3.41-13.57 1.02-.47-.32-1.06-.62-1.07-1.25-.05-2.52-1.85-3.84-3.54-5.19zm34.77-16.14c-1.21-1.12-1.06-1.89-.31-3.17 1.16-1.95 1.78-4.19 3.27-5.99.97-1.17 1.62-1.18 2.68-.02 3.67 4 5.65 8.81 7.03 13.93.59 2.18.98 4.41 1.47 6.62 1.45.8 1.69 1.97 1.15 3.47-.52 1.44-1.44 2.31-2.99 2.41-.8.05-1.6.05-2.4.02-3.01-.13-2.87-.16-3.4-3.25-.9-5.24-2.45-10.27-6.51-14.03zm8.75-9.22c-3.06-2.77-2.97-2.76.69-4.76 2.96-1.62 5.62-1.87 8.67-.01 5.01 3.04 9.35 6.61 11.98 11.96.23.47.68 1-.12 1.4 1.96.08 2.35.45 1.79 2.15-1.22 3.68-3.95 5.78-7.61 6.78-.44.12-.91.15-1.37.16-1.25.04-2.62.37-3.74-.01-1.45-.49-.73-2.21-1.12-3.35-1.89-5.54-4.82-10.36-9.19-14.31zm8.71-6.64c1.87-6.92 6.88-10.21 12.97-12.38 1.18-.42 2.2-.28 3.23.46 3.32 2.36 5.43 5.9 8.4 8.59.3 2.85 2.44 5.6.48 8.56-2 3.02-5.17 3.55-8.42 3.86-.58.05-1.14-.09-1.59-.51-4.34-4.07-9.43-6.86-15.08-8.58zm57.38 22.72c2.07-.66 4.15-1.34 6.15-2.2 2.43-1.05 4.23-.28 5.75 1.61 2.97 3.7 4.55 7.95 4.69 12.68.09 2.98-.09 5.96-.14 8.94-.04 2.41-.04 4.82-.11 7.22-.12 3.63 1.32 6.69 3.75 9.69-3.9 1.08-4.01 1.13-5.3-1.62-4.13-8.82-8.17-17.68-12.25-26.53-1.15-2.5-2.26-5.02-3.46-7.49-.58-1.19-.42-1.87.92-2.3zm32.04 27.37c-1.37-2.85-2.04-5.83-1.72-9 .3-3.08.54-6.17.92-9.23.39-3.13.03-6.19-.67-9.21-.67-2.92-2.74-4.95-5.37-7.1 2.91-1.2 5.58-1.15 8.14-1.65 2.15-.42 3.1 1.1 3.9 2.67 2 3.98 2.66 8.26 2.53 12.67-.16 5.38-.35 10.77-.6 16.15-.18 4.02.67 7.71 2.97 11.08 1.17 1.71.97 1.96-1.1 2.33q-4.27.77-6.28-3.15c-.94-1.84-1.83-3.7-2.72-5.56zM499.9 318.58c.05-1.5.79-1.93 2.05-2.22 4.59-1.04 9.17-2.11 13.73-3.23 19.38-4.76 38.83-9.22 58.13-14.27.93-.24 2.05-1.1 2.87-.09.65.8-.19 1.74-.45 2.57-1.6 4.91-3.15 9.84-4.08 14.93-.34 1.85-1.25 2.3-2.98 2.52-7.28.94-14.62 1.27-21.87 2.56-11.89 2.12-23.56 4.97-34.79 9.49-2.79 1.12-5.48 2.3-7.75 4.35-.82.74-1.67 1.59-2.87 1.65-.48-.27-.66-.67-.75-1.14a77.94 77.94 0 01-1.24-17.12zm-108.25 85.99c5.64-3.12 10.46-7.37 15.56-11.23 3.25-2.46 6.54-4.81 10.14-6.73.27-.28.54-.32.81-.16-.24-.99.7-1.26 1.23-1.63 11.01-7.76 22.12-15.38 33.06-23.24 6.87-4.93 13.88-9.73 19.98-15.66 5.68-5.53 10.31-11.95 15.27-18.1 2.05-2.54 4-5.16 6.28-7.66-.17 7.6.54 15.06 1.1 22.53 1.3 2.72 1.12 5.77 1.85 8.62.91 3.55 1.65 7.15 2.47 10.72.72 3.1.59 3.39-2.14 4.69-5.2 2.47-6.68 5.18-6.29 12.02-3.36-.44-6.57.16-9.68 1.39-4.8 1.89-8.72 4.68-10.13 9.95-.41 1.52-1.45 1.9-2.74 2.17-1.91.39-3.84.72-5.71 1.23-4.98 1.36-8.05 4.59-9.32 9.6-.94 3.72-.99 3.69-4.66 3.96-1.26.09-2.5.32-3.75.51-3.92.61-6.42 2.74-7.41 6.66-.61 2.39-.71 2.36-2.99 2.01-1.36-.21-2.73-.39-4.08-.6-5.49-.87-9.73 1.15-12.57 5.8-1 1.63-1.74 1.37-2.96.58-2.12-1.38-4.38-2.51-6.7-3.51-2.35-1.01-4.78-1.6-7.34-1.63-2.22-.03-4.39.04-6.03 1.87-.31.34-.72.64-1.2.48-.69-.23-.67-.87-.59-1.43.31-2.09 0-4.14-.59-6.12-.36-1.2-.88-2.38-1.52-3.45-1.42-2.37-1.51-2.43.66-3.64zm-83.21 110.97c-3.2-12.53-4.48-25.25-3.26-38.16.89-9.46 1.86-18.92 2.73-28.39.13-1.46-.07-2.97-.23-4.45-.91-8.32-2.67-16.5-4.43-24.67-.89-4.13-1.99-8.25-2.06-12.52-.02-1.03-.48-2.54 1.54-2.22 4.37-.12 8.66.58 12.95 1.25 14.6 2.28 29.06 5.35 43.56 8.21 3.59.71 7.24 1.15 10.87 1.62 1.98.26 3.85-.14 5.61-1.2 3.62-2.19 7.29-4.3 11.18-6.58 1.53 2.66 1.28 5.62 2.14 8.8-2.25 0-4.07-.08-5.88.02-3.59.2-6.85 1.06-8.45 4.79-.47 1.09-1.15 1.2-2.19.72-1.56-.73-3.15-1.39-4.78-1.94-5.04-1.7-9.51-.77-13.24 3.1-1.69 1.76-2.08 2.87-2.64 6.56-5.21-.79-9.36 1.62-13.11 4.74-3.54 2.93-6.49 14.52-4.98 18.89 1.1 3.21 2.97 5.99 5.71 8.01 5.56 4.09 13.09 2.71 17.2-3.27 1.16-1.69 2.28-2.34 4.35-2.43 5.93-.24 10.63-4.38 11.97-10.13.13-.54 0-1.15.52-1.56q5.86 1.57 11.19-.38c.79.9 0 1.74-.2 2.51-4.01 14.69-10.84 27.94-20.23 39.92-8.35 10.66-17.12 20.96-25.93 31.24-.66.77-1.24 1.66-2.19 2.14-1.89 3.47-4.87 6-7.57 9.25-3.37-7.41-6.55-14.43-8.73-21.9-2.51-8.6-3.06-17.36-2.8-26.23.06-2.2.68-4.3 1.15-6.42 1.27-5.71 2.53-11.42 3.7-17.15 1.41-6.94-.08-13.69-1.61-20.42-.24-1.08-.93-2.12-.42-3.3-1.23-.25-.86-1.38-1.11-2.12-2.26-6.87-5.66-13.01-11.2-17.82-.07 2.99 1.28 5.6 2.51 8.14 3.27 6.71 4.56 13.91 5.54 21.19.84 6.23.05 12.35-1.45 18.41-1.05 4.23-2.05 8.47-3.07 12.7-1.92 7.95-1.27 15.99-.39 23.96 1.12 10.11 4.23 19.7 8.83 28.78 1.26 2.48 2.24 5.02 1.91 7.9-.11.93-.21 1.82-.92 2.51-2.52 2.46-5.04 4.93-7.78 7.61-.52-1.6.1-2.75.49-3.82 1.15-3.15.97-6.15.09-9.39-1.5-5.54-3.47-10.92-4.89-16.47zm-16.71 186.75c.2-.18.39-.36.59-.54-.03.36-.25.51-.59.54zm.67-.64c.09-.33.29-.54.63-.62.07.48-.19.64-.63.62zm256.5 116.02l.19.12-.22.04.03-.16zm100.32-1.36c-.48 6.04-.59 12.11-.85 18.17-.02.55-.09 1.11-.94 1.54-1.71-3.19-3.73-6.22-5.85-9.18-8.65-12.1-19.7-21.68-31.85-30.03-6.7-4.61-13.66-8.85-21.3-11.8-.32-.12-.65-.24-.94-.42-.21-.14-.51-.23-.55-.53-.28.4-.83.29-1.29.09-.59-.25-1.37-.25-1.55-1.09.61-.44 1.28-.3 1.95-.23.49.05.98.21 1.04.65.17-.27.46-.38.81-.34 1.25.13 2.5.31 3.74.5 7.42 1.15 14.42 3.55 21.05 7.03 3.65.42 6.47 2.7 9.48 4.43 5.94 3.41 11.72 7.11 17.07 11.41 2.14 1.72 4.82 2.59 6.76 4.57 2.42.92 3.44 2.46 3.21 5.24zm.94-17.98c-.12 2.17-.21 4.34-.34 6.51-.06 1 .15 2.09-.75 2.88-.96.14-1.48-.55-2-1.12-6.26-6.92-14.23-11.5-22.21-16-8.93-5.03-18.32-8.92-28.51-10.64-3.87-.65-7.76-.55-11.65-.43-1.23.04-2.5.45-3.81-.27 0-2.77 1.26-5.28 1.81-7.95.27-1.29 1.31-1.37 2.43-1.29 5.39.38 10.67 1.3 15.84 2.91 10.44 3.25 20.37 7.68 29.96 12.84 5.46 2.93 11.19 5.26 16.68 8.09 2.71 1.4 2.72 1.37 2.55 4.47zm22.12-137.72c-.89 3.07-1.76 6.15-2.7 9.2-3.32 10.75-5.43 21.78-7.79 32.75-2.14 9.97-3.6 20.07-5.01 30.15-1.52 10.89-2.26 21.89-3.35 32.84-.72 7.15-1.47 14.3-2.24 21.79-2.38-.73-4.1-2.09-5.76-3.38-3.03-2.33-6.25-4.26-9.74-5.77-8.62-3.74-17.17-7.68-26.33-10.02-6.98-1.78-14-2.45-21.13-1.12-.68.13-1.37.15-2.04.3-1.74.39-2-.49-1.71-1.91.76-3.83 1.62-7.64 2.25-11.48 2.69-16.46 3.89-33.03 3.13-49.71-.11-2.52-.27-5.07-.78-7.52-.39-1.88.16-2.9 1.58-4.06 6.38-5.17 13.56-8.99 20.87-12.58 9.21-4.53 19.05-7.26 28.91-9.94 10.4-2.82 20.9-5.33 30.73-9.92.19-.09.45-.05.67-.06.16-.1.39-.33.45-.29.36.22.25.49-.02.73zm-90.23-5.64c6.72-4.18 13.72-7.95 20.15-12.54 7.55-5.39 15.29-10.55 22.5-16.44 10.74-8.79 21-18.18 32.52-25.99 12.58-8.53 25.65-16.07 40.54-19.9 1.11-.29 2.21-.62 3.34-.84 1.1-.22 2.43-.79 3.22.23.72.92-.28 1.94-.66 2.85-2.28 5.5-4.6 10.99-6.94 16.47-.63 1.47-1.16 3-2.23 4.24-2.12 6.87-5.36 13.3-7.68 20.1-.56 1.66-1.93 2.48-3.35 3.26-8.64 4.75-17.55 8.92-26.73 12.47-11.07 4.28-22.24 8.31-33.91 10.69-6.05 1.23-12.12 2.37-18.19 3.5-.97.18-2 .6-3.01.04-6.74 2.05-13.8 2.01-20.61 3.45-.42-1.33.61-1.3 1.06-1.58zm-1.46 6.82c9.66 1.22 19.19.6 28.69-1.39 12.01-2.52 23.98-5.11 35.41-9.71 12.24-4.93 24.25-10.32 35.42-17.43.59-.37 1.16-.74 1.9-.66.66.59.37 1.23.12 1.87-2.22 5.77-4.56 11.49-6.58 17.33-.7 2.02-1.84 2.85-3.71 3.53-11.15 4.05-22.76 6.18-34.33 8.49-10.13 2.02-20.1 4.62-29.74 8.37-6.56 2.55-12.91 5.43-17.26 11.37-.74 1.01-1.73 1.82-2.61 2.72-.07.07-.21.07-.75.25-1.73-4.63-3.09-9.24-5.26-13.53-2.11-4.18-5.26-7.68-8.08-11.87 2.64-.47 4.7.42 6.77.68zm1.03-110.19c-3.96 1.86-7.91 3.75-11.95 5.45-3.45 1.45-7.05 2.52-10.38 4.24-6.66 3.43-12.53 8.18-19 11.94-.27.16-.55.28-.82.4-2.85 2.21-5.66 4.39-8.23 7.08-3.9 4.07-7.92 8-11.79 12.1-3.73 3.95-7.45 7.99-10.63 12.41-2.73 3.8-4.53 7.93-8.33 10.81-.42 1.49.02 2.7 1.34 4.13 1.8 1.95 3.92 3.48 6.25 4.76 2.53 1.39 4.62 3.23 6.47 5.5 2.24 2.74 4.86 5.16 7.38 7.66 9.04 8.98 16.92 18.9 23.45 29.82 3.9 6.52 5.95 13.82 7.38 21.25.21 1.1 1.42 2.29.18 3.51.04.82.08 1.64.13 2.47 1.43.14 1.4 1.39 1.62 2.3.55 2.21.96 4.46 1.54 7.25-1.69-1.47-1.98-3.17-2.77-4.53-1.51-2.58-3.22-3.29-5.98-2.15-.83.34-1.51 1.12-2.26-.12-2.73-4.51-5.5-8.99-8.24-13.49-.24-.39-.33-.83-.07-1.26-1.24-.16-1.36-1.08-1.38-2.06-.55-.14-.69-.55-.67-1.07-1.94-3.03-3.87-6.08-5.82-9.1-.73-1.14-1.55-2.21-2.68-3-.23 0-.46.02-.69.02-4.16-.09-5.71 1.49-5.17 5.6.37 2.83 1.08 5.63 1.65 8.43.14.67.43 1.32.2 2.09-1.08-.17-1.21-1.18-1.63-1.87-5.53-9.27-10.14-19.01-14.76-28.75-.59-1.24-1.17-2.5-1.89-3.67-1.19-1.93-2.65-2.66-4.21-2.29-1.77.42-2.81 1.87-2.85 4.18-.02 1.26.13 2.52.24 3.77.68 7.33.78 14.65-.45 21.99-.98-.34-.95-1.22-1.12-1.94-2.01-8.53-5.03-16.67-9.24-24.36-.33-.6-.59-1.24-.84-1.88-1.48-3.82-3.51-7.21-7.06-9.48-.61-.39-1.17-.87-.83-1.65.05-.12.11-.23.18-.32-.29-.03-.57-.05-.85-.07-.54 13.74-1.4 27.5-2.13 41.23-.36 6.78-.72 13.56-.89 20.35.32 1.03.5 2.12.69 3.17.55 2.99 2 5.01 4.61 6.38.91.48 1.72 1.14 2.65 1.59 3.48 1.7 6.83 2.99 11.06 2.62 8.3-.73 16.57-1.88 24.97-1.73 9.01.17 17.75 1.71 26.26 4.43 2.4.77 4.68 2.15 7.2 2.89 5.13 1.53 10.19 3.27 15.31 4.82 2.64.8 3.31.23 3.32-2.51.03-5.21-1.5-10.17-2.55-15.19-1.12-5.38-2.95-10.58-4.71-15.79-2.79-8.32-6.61-16.09-11.98-23.06-.56-.72-1.15-1.43-1.31-2.73 3.3 1.33 6.61 1.67 9.99 1.84 3.42.17 6.19-1.34 9.12-2.59 2.84-1.22 2.81-1.17 4.65 1.33 5.73 7.8 8.53 16.7 10.18 26.05.71 2.41.8 4.87.86 7.39.43 1.47.22 3.05.22 4.57.03 6.89.24 13.79-.14 20.66-.36 6.38-1.33 12.73-2.13 19.08-1.41 11.18-4.67 21.91-8.08 32.6-.28.87-.5 1.77-.85 2.62-.78 1.88-1.85 2.09-3.82 1.42-9.95-3.4-20-6.66-30.67-6.37-6.17.17-12.27 1.32-18.15 3.32-.76.26-1.53.54-2.19.97-3.98 2.55-4.16 4.2-.28 6.74 6.67 4.36 11.14 10.8 16.26 16.63.58.66 1.07 1.5 1.16 2.46l.02.06c.22.17.44.35.66.52 4.31 4.12 7.83 8.94 12.05 13.58-1.18.66-2.25.66-2.98.05-2.61-2.18-5.81-3.16-8.79-4.59-3.11-1.49-6.18-3.04-8.99-5.06-.74-.53-1.52-1.04-2.32-1.48-4.3-2.33-6.86-1.19-8.06 3.59-1.14.17-1.95-.6-2.78-1.14-6.95-4.47-14.15-8.54-20.65-13.7-1.44-1.14-3-2.12-4.54-3.12-1.16-.75-2.41-1.35-3.77-1.63-1.92-.4-3.68-.07-4.97 1.56-1.2 1.52-1.19 3.25-.37 4.87 1.3 2.56 2.78 5.01 4.17 7.52.53.96 1.01 1.94 1.69 3.26-1.69-.25-2.37-1.21-3.18-1.92-12.67-11.02-24.3-23.07-35.2-35.84-.9-1.05-1.75-2.15-3-2.79-1.44-.73-2.91-.81-4.19.29-1.14.98-1.51 2.29-1.07 3.75.3.99.68 1.95 1.08 2.9 3.86 9.2 7.73 18.39 11.59 27.58.4.95.73 1.92.76 3.12-.91-1.3-1.91-2.53-2.71-3.89-9.52-16.19-17.03-33.29-22.78-51.15-2.03-6.31-2.36-12.83-2.06-19.4-.55-2.05-1.92-2.59-3.53-1.36-1.05.8-1.51 1.99-1.88 3.2-1.33 4.28-2.1 8.64-2.1 13.13 0 .8.03 1.61-.06 2.4-.17 1.42-.76 1.67-2.07.87-.46-.28-.79-.8-1.17-1.2-1.46-.5-2.5-1.52-3.49-2.66-6.63-7.61-14.27-14.2-21.46-21.25-10.87-10.67-21.78-21.29-32.1-32.49-1.47-1.59-2.79-3.32-4.48-5.35 8.13-5.3 16.23-10.53 22.76-17.53 6.5-6.97 13.15-13.94 17.26-22.67-.89-1.1-1.92-.58-2.75-.86-3.83.92-7.35 2.47-10.55 4.81-1.38 1.01-2.96 1.78-4.53 2.45-5.64 2.41-10.81 5.55-15.38 9.65-.84.75-1.63 1.63-2.92 2.06-.47-1.17.49-1.88.81-2.73.28-.75.7-1.44 1.03-2.18.81-1.8.95-3.59-.4-5.18-1.37-1.61-3.11-1.76-5-.97-.29.12-.65.08-.98.1-.39.87-.91 1.56-2.01 1.44.1.58-.12.82-.69.68-.04.31.02.71-.15.91-7.49 8.74-14.91 17.55-22.88 25.86-.3.31-.71.5-1.08.74-.41-1.43.48-2.61.82-3.89.6-2.25.15-3.96-1.34-4.85-1.59-.95-3.66-.57-5.24 1.15-1.08 1.17-1.97 2.52-2.94 3.79-5.48 7.22-11.68 13.78-18.61 19.6-1.54 1.29-2.76 3.24-5.07 3.47.34-.69.55-1.48 1.05-2.02 5.21-5.66 9.09-12.15 12.11-19.19.34-.79 1.04-1.43 1.57-2.15-.05-.33.08-.56.35-.72.1-.91.28-1.78 1.15-2.31.36-1.61.62-3.25 1.88-4.48.81-5.07 2.08-10.06 2.65-15.17.16-1.39 1.14-2.1 2.48-2.52 13.23-4.14 26.51-8.08 40.07-11.01 11.71-2.53 23.58-3.24 35.48-3.8 2.85-.13 5.69-.66 8.52-1.04.56-.08 1.14-.25 1.62-.53.74-.43 1.14-1.21 1.13-2.01 0-1.13-1.05-1.04-1.79-1.13-5.34-.66-10.68-1.41-16.04-1.87-7.99-.7-15.98-1.13-24.03-.43-7.92.68-15.58 2.62-23.34 4.08-1.11.21-2.18.73-3.34.28-2.81 1.9-6.24 2.06-9.3 3.24-.77.3-1.22-.37-1.55-1.02-3.18-6.2-6.48-12.27-7.79-19.32-3.11-16.75-2.18-33.32 1.77-49.74 2.22-9.23 7.04-17.37 12.12-25.3.96-1.5 1.45-3.36 3.06-4.41 7.5-7.77 13.33-16.9 20.44-25 6.42-7.32 11.94-15.38 16.78-23.87 1.36-2.39 2.98-4.62 4.48-6.93 7.51-11.57 12.92-23.99 15.34-37.63.32-1.78.45-3.59.7-5.69 1.9 1.51 3.82 2.64 6.06 3.23 4.26 1.13 7.9-.19 11.31-2.61 1.47-1.78 2.05-.13 2.84.74.95.41 1.9.81 2.84 1.23 3.34 1.5 6.52 1.29 9.32-1.14 1.71-1.49 3-1.57 5.08-.31 4.78 2.88 11 1.95 14.88-2.04 1.37-1.4 2.24-1.34 3.76-.41 3.38 2.08 7.21 2.22 11.01 1.75 2.25-.28 4.19-1.45 4.81-3.86.43-1.66 1.33-2.18 2.97-2.06 1.48.1 2.98-.1 4.47-.12 2.41-.02 3.87-1.17 4.41-3.53.15-.67.45-1.32.5-2 .16-1.91 1.26-2.82 3.03-3.19 1.23-.26 2.48-.52 3.66-.94 5.37-1.92 8.66-5.62 8.91-11.43.1-2.25.92-3.13 2.97-3.81 6.22-2.05 8.34-5.1 8.03-11.53-.09-1.9.54-3.01 2.01-3.94 1.24-.78 2.43-1.64 3.7-2.51 1.14 1.28 1.36 2.66 1.78 3.92 2.92 8.95 6.32 17.73 10.2 26.28 4.27 9.38 8.51 18.79 12.8 28.16 1.1 2.4 2.14 4.82 3.18 7.24.98 2.28.86 2.58-1.5 2.83-6.95.74-13.9 1.51-20.87 2.09-14.51 1.22-29.04 2.3-43.55 3.51-2.74.23-5.46.72-8.16 1.21-3.08.55-3.83 1.62-3.51 4.77.52 5.16 2.73 9.49 6.43 13.11 12.74 12.47 27.28 21.94 44.59 26.8.53.15 1.15.16 1.46.76 6.15 1.29 12.3 2.59 18.46 3.86.99.2 2.01.28 3.02.42 8.23 1.7 16.56 1.48 24.89 1.41 2.07-.02 4.02-.77 6.12-.74 1.69.02 2.92.28 4.15 1.67 1.31 1.47 3.38 2.23 4.32 4.17.02.05.05.1.08.15 1.05 1.04 1.7 2.52 1.87 4.11.67 6.09 6.18 11.46 9.77 16.32.31.32.6.68.85 1.11 1.44 2.46.74 6.43-2.02 7.72zm.17-33.5c-.84-1.49-1.83-2.89-2.68-4.21.1-1.14 1.01-1.13 1.55-1.29 7.61-2.32 13.81-7.09 20.1-11.65 1.94-1.41 3.35-3.44 4.62-5.52.72-1.17.38-1.93-.75-2.5-.93-.47-1.92-.73-2.96-.85-1.13-.13-2.31.01-3.37-.56-2.45.39-4.74-.63-7.14-.78-5.72-.35-11.44-.72-17.14-1.21-5.94-.51-11.86-1.17-17.79-1.76-.68-.07-1.37-.2-2.05-.22-3.4-.12-4.22.77-3.8 4.37-6.82-1.15-13.49-2.65-20.15-4.26-1.89-.46-3.76-1.05-5.74-1.02-1.07.01-2.12.15-2.53 1.33-.42 1.2.32 1.99 1.19 2.6 1.97 1.38 3.99 2.69 6 4.02 1.01.67 2.04 1.33 2.95 2.19-6.99-1.48-13.78-3.51-20.57-5.56-5.62-1.69-10.86-4.31-16.2-6.66-1.25-.55-2.55-1.02-3.87-1.4-.8-.23-1.63-.04-2.04.83-.33.69-.14 1.38.35 1.91 1.16 1.25 2.37 2.44 3.52 3.62-4.64-.7-17.53-8.45-21.82-13.25 2.62-.94 5.22-.52 7.75-.56 2.63-.04 5.26-.43 7.89-.07 5.43-.91 10.95-.88 16.42-1.3 10.98-.84 21.91-2.17 32.82-3.69 4.99-.7 10.14-.62 14.98-1.83 11.65-2.9 23.51-4.95 34.96-8.63 2.08-.67 4.2-1.19 6.24-1.94 1.45-.53 2.26-.36 2.97 1.16 5.56 11.97 11.97 23.5 18.72 34.83 1.53 2.56 3.24 5 4.85 7.51 1.49 2.32 1.56 2.49-.64 4.17-3.65 2.79-7.61 5.1-11.86 6.88-6.9 2.89-14.11 4.74-21.34 6.54-1.56.39-2.62.24-3.46-1.24zM600 545.49c-3.68-4.68-7.06-9.57-10.37-14.52-.95-1.42-1.63-2.96-2.52-5.06 2.72 0 5.01.12 7.27-.04 2.11-.15 3.85.47 5.31 1.9 2.32 2.27 4.26 4.79 4.83 8.12.11.68.33 1.33.47 2.01.38 1.91.72 3.83 1.1 5.73.37 1.84 1.98 2.98 2.8 4.63-5.15 1.36-5.87 1.06-8.89-2.78zm15.07 1.54c-1.09.22-1.7-.51-2.28-1.22-1.47-1.8-2.44-3.87-3.03-6.11-.56-2.1-1.04-4.23-1.67-6.31-1.23-4.05-2.07-5.22-6.51-9.56 2.6-1.03 5.09-2.13 7.67-2.98 1.55-.51 2.81.46 3.9 1.5 2.41 2.29 3.72 5.19 4.47 8.36.18.78.28 1.58.38 2.38.56 4.4 1.82 8.49 6.04 12.09-3.63.75-6.3 1.31-8.98 1.86zm18.63-3.69c-5.49 1.46-5.85 1.34-8.38-3.79-1.12-2.26-1.88-4.67-2.43-7.13-1.28-5.65-3.73-10.55-9.11-13.66 1.91-1.77 3.69-3.35 5.38-5.03.88-.88 1.59-.58 2.41-.04 3 1.98 4.85 4.79 5.98 8.13.96 2.84 1.34 5.79 1.77 8.73.52 3.56 1.33 6.96 4.14 9.55.72.66 1.43 1.47 1.75 2.79-.63.19-1.07.33-1.51.45zm-12.23-32.81c.57-1.24.93-2.04 1.42-3.11 1.49 1.1 2.32 2.37 3.07 4.31-1.66-.44-2.91-.78-4.49-1.2zm25.51 29.22c-7.11 2.08-5.76 3.11-8.78-4.3-1.11-2.73-1.65-5.69-2.44-8.54-.12-.43-.2-.86.32-1.69 3.73 4.84 6.93 9.97 11.5 13.36.08.95-.29 1.08-.59 1.17zm11.59-7.06c-.34.56-.45 1.32-.45 1.99 0 1.58-.86 2.15-2.28 2.47-1.45.33-2.16-.36-2.73-1.46-4.12-7.86-9.66-14.78-14.7-22.02-5.11-7.34-10.6-14.42-15.18-22.13-11.55-19.45-22.41-39.24-29.94-60.68-4.8-13.66-8.5-27.59-10.93-41.88-2.34-13.71-3.42-27.53-4.29-41.38-.49-7.68-.67-15.35-.03-23.03.57-6.87 2-13.6 3.22-20.37.36-2.03.78-4.05 1.07-6.09.18-1.28.76-2.03 2.02-2.45 3.58-1.21 7.11-2.53 10.77-3.84.65.97.35 1.61.19 2.28-2.73 11.73-4.93 23.52-5.45 35.61-1.06 24.9 2.98 49.11 9.4 73.02 3.54 13.18 7.48 26.24 12.33 38.99 4.73 12.44 9.99 24.66 15.96 36.57 7.35 14.68 15.34 28.99 24.08 42.9 1.77 2.82 3.75 5.49 6.09 7.88 1.02 1.04 1.79 2.07.86 3.62zm233.4-149.41c-5.75 9.34-13.03 17.37-21.16 24.7-8.61 7.77-17.7 14.91-27.21 21.49-16.59 11.49-33.29 22.84-51 32.59-12.23 6.74-24.83 12.75-37.41 18.81-8.45 4.07-16.77 8.38-25.21 12.47-13.08 6.34-26.23 12.53-39.31 18.88-6.17 3-12.53 5.61-18.47 9.08-2.09 1.22-3.83 2.84-5.88 4.57-1.37-2.46-2.62-4.71-3.89-6.99.52-1.01 1.6-1.23 2.48-1.64 7.27-3.42 13.89-8.07 21.26-11.28 5.14-2.24 10.16-4.79 15.55-6.42.76-.23 1.47-.63 2.18-1.01 6.59-3.49 13.26-6.79 20.16-9.66a278.228 278.228 0 0032.65-16.17c3.8-3.12 7.95-5.75 12.06-8.43 13.06-8.52 26.56-16.38 39.09-25.72.54-.4 1.01-.96 1.77-.98 9.36-6.99 17.38-15.33 24.25-24.72 7.81-10.66 12.28-22.72 13.92-35.82.3-2.4.53-4.93-1.86-6.56-2.52-1.72-4.8-.42-7.09.73-12.13 6.12-24.73 10.91-38.13 13.43-.74.14-1.52.57-2.37-.1.61-2.34 2.12-4.26 3.45-6.2 3.12-4.55 5.66-9.43 8.58-14.08 4.23-6.72 9.76-12.41 14.7-18.56 2.94-3.66 5.87-7.33 8.89-10.92 3.21-3.82 3.04-8.23 2.45-12.74-.18-1.39-1.22-2.12-2.3-2.83-2.43-1.6-5.21-2.38-7.88-3.37-8.06-2.99-16.4-5.01-24.76-7.01-15.85-3.81-31.9-6.29-48.07-8.22-15.5-1.85-31.07-2.27-46.66-2.23-4.56.19-9.13.34-13.69.58-10.18.54-20.36 1.03-30.49 2.27-.78.1-1.59.3-2.37-.06-10.07 1.63-20.28 2.28-30.28 4.32-8.99 1.83-18.06 3.17-27.13 4.52-.79.12-1.59.25-2.38.37-1.09.16-1.43-.41-1.37-1.4.31-4.92.61-9.84.9-14.77.09-1.54.71-1.98 2.38-1.99 6.32-.04 12.51-1.43 18.79-2 17.58-1.59 34.99-4.63 52.58-6.24 14.04-1.28 28.1-2.29 42.15-3.44 14.97-1.23 29.96-2.07 44.99-2.11 12.05-.03 24.04.78 36.03 1.97 9.82.98 19.58 2.31 29.19 4.44 10.08 2.23 19.86 5.54 29.31 9.74 9.28 4.13 17.86 9.36 25.41 16.19 2.81 2.54 5.5 5.19 7.78 8.23 1.55 1.12 2.6 2.61 3.23 4.4 1.42 1.4 2.26 3.21 3.02 4.97 3.75 8.62 5.65 17.67 5.8 27.06.16 10.2-3.4 19.31-8.65 27.85z"/><path class="cls-7" d="M789.21 315.54s34.28 2.06 37.03 8.23c2.74 6.17-38.74 11.66-47.66 12.34-8.91.69 10.63-20.57 10.63-20.57z"/><path class="cls-7" d="M820.07 321.37c-1.84-1.15-6.85-2.26-13.51-3.3l2.54-.47c-67.88-17.14-117.1-7.71-117.1-7.71-7.19.33-14.41.52-21.58 1.24-2.95.3-5.9.67-8.84 1.04-4.19.54-8.36 1.23-12.56 1.64-5.69.55-11.33 1.3-16.96 2.29-6.3 1.11-12.62 2.1-18.92 3.19-4.28.74-8.62 1.15-12.81 2.39-1.39.41-2.04 1.03-2.09 2.61-.21 6.89.28 13.76.94 20.6.59 6.14 1.53 12.25 2.55 18.33.68 4.03.93 8.18 2.55 12.02.16 3.99 1.26 7.72 3.11 11.39 1.07-4.8 2.4-9.46 3.58-14.16 2.82-6.5 5.34-13.15 8.77-19.36 2.09-3.78 3.69-7.91 6.94-10.96.78-.73 1.64-2.16 2.81-1.14 1.1.96-.04 2.14-.63 3.03-3.66 5.44-6.23 11.41-8.72 17.42-1 2.41-2.34 4.71-2.6 7.39 2.49.07 4.73-.89 7.01-1.67-2.28.78-4.52 1.74-7.01 1.67-1.83 3.09-2.69 6.54-3.49 9.98-1.51 6.58-2.19 13.29-2.56 20-.25 4.46.63 8.9 3.06 12.8.69 1.1 1.05 2.27 1.44 3.45 1 3.04 1.83 6.13 2.88 9.15 1.64 4.73 2.8 9.64 5.3 14.04 2.43-1.27 4.76-2.79 7.3-3.76 7.6-2.92 15.51-4.7 23.56-5.89 4.28-.63 8.63-.77 12.84-1.87-3.6-5.5-6.15-11.54-8.1-17.74-1.43-4.56-1.77-9.43-1.16-14.26.1-.79.32-1.58.32-2.38-.07-8.54 1.26-16.88 3.47-25.1.09-.33.05-.68.08-1.03 2.18-5.14 3.9-10.46 6.54-15.42 3.63-6.81 8.22-12.9 13.33-18.61 1.58-1.76 3.58-3.19 5.53-4.57 1.54-1.09 4.01-1.13 4.46-.22.79 1.62-.22 2.9-1.23 3.98-1.71 1.83-3.6 3.49-5.34 5.31-8.2 8.59-13.81 18.69-17.34 29.98-2.3 5.52-3.2 11.38-4.03 17.24-.93 6.59-.7 13.23-.77 19.86-.02 2.11.45 4.06 1.18 6.01 2.25 6.05 5.33 11.62 9.4 16.63 1.68-.77 3.49-.94 5.29-1.23 5.52-.87 10.94-2.09 16.09-4.33 1.11-.48 2.44-.85 2.5-2.45-.22-.73-.93-.99-1.44-1.41-4.85-4.06-6.01-9.22-4.61-15.17 1.34-5.65 3.57-10.95 7.17-15.49 5.36-6.75 11.42-12.85 18.27-18.12 7.17-4.72 14.13-9.78 21.76-13.77 7.32-3.82 14.65-7.64 22.17-11.07 7.84-3.59 16-6.31 24.14-9.03 5.95-1.98 11.92-4.03 18.24-4.79 3.4-.41 6.75-1.21 10.19-1.33.61-.02 1.17-.24 1.27-.91.02-.12 0-.23-.01-.33 5-1.45 8.45-3.38 4.84-5.63zm-209.42 8.16c-.06 1.17-.58 2.03-1.86 1.92-1.09-.09-1.53-.9-1.49-1.93.05-1.22.71-1.86 1.9-1.9 1.26.08 1.51.91 1.45 1.91zm5.66 17.15c-1.09.01-2.23-1.33-2.19-2.61.04-1.2.66-1.91 1.87-2.04 1.31-.14 2.85 1.12 2.9 2.34.04 1.02-1.39 2.3-2.58 2.31zm7.88-13.59c-1.3-.17-2-1.22-1.85-2.79.15-1.64 1.43-2.85 2.9-2.77 1.36.08 2.09 1.04 2.02 2.63-.08 1.79-1.49 3.14-3.08 2.93zm12.04 36.36c-1.39-.03-2-.88-2.01-2.18 0-.55.12-1.11.19-1.66 1.09-.99 2.37-.85 3.67-.64.22.63.6 1.26.64 1.9.09 1.42-1.11 2.62-2.49 2.58zm8.55-21.32c-1.06.06-2.33-1.24-2.11-2.24.23-1.06.8-1.93 2.12-1.76 1.08.14 1.77 1.05 1.69 2.2-.11 1.03-.6 1.74-1.7 1.8zm1.53 45.99c.3.24.53.55.67.94-.18-.34-.4-.67-.67-.94zm2.87-65.95c-1.62-.18-1.73-1.51-1.97-2.5.03-1.6 1.31-2.98 2.5-2.93 1.13.05 2.29 1.39 2.22 2.56-.1 1.61-1.42 3.01-2.74 2.86zm15.96 9.69c-1.38 0-2.69-1.3-2.62-2.6.09-1.56 1.5-2.97 2.85-2.84 1.36.13 2.51 1.46 2.45 2.83-.06 1.38-1.31 2.6-2.67 2.61zm18.01-16.52c-1.47-.1-2.78-1.57-2.63-2.95.13-1.16 1.69-2.49 2.87-2.46 1.35.04 2.53 1.54 2.44 3.12-.09 1.6-1.02 2.39-2.69 2.29zm3.69 46.82c-1.92.04-3.83.04-5.74-.06 1.91.09 3.82.1 5.74.05zm18.32-35.73c1.2.01 2.32 1.17 2.41 2.48.08 1.17-.87 2.22-2.05 2.28-1.46.07-2.06-.86-2.29-2.08-.26-1.37.76-2.7 1.93-2.68zm.64 27.37c-1.48.03-2.69-1.24-2.73-2.87-.04-1.67.86-2.54 2.51-2.45 1.57.09 2.28.95 2.27 2.75-.01 1.64-.73 2.54-2.05 2.57zm3.26-40.54c-.2 1.05-.88 1.9-2.07 1.8-.91-.08-1.24-.87-1.21-1.74.04-1.18.83-1.47 1.84-1.45.9.04 1.64.36 1.44 1.38zm23.55 25.41c-5.91.02-13.76-5.57-13.04-13.57-.41-7.39 6.11-13.17 13.21-13.3 6.36-.12 13.26 6.86 13.11 13.69-.13 6.07-5.84 13.15-13.27 13.18z"/><path class="cls-6" d="M801.79 378.35s2.85 5.08 13.82.62 33.26-18.51 32.57-4.46c-.69 14.06-8.23.69-8.23.69l-27.43 11.31-22.63-.69 11.89-7.48z"/><path class="cls-3" d="M742.93 394.74s27.09 3.43 51.38-1.75c11.15-2.38 39.13-17.11 42.22-15.39 3.09 1.71 1.71 8.57.34 10.29-1.37 1.71-22.63 15.77-37.71 14.74-15.09-1.03-36 2.06-44.91-1.03-8.91-3.09-11.31-6.86-11.31-6.86z"/><path class="cls-2" d="M725.67 362.28s-16.46-16.91-35.2-15.54c-18.74 1.37-44.34 13.71-56.23 13.71s-32.46 5.49-32.46 5.49 14.63 59.88 21.94 70.4c0 0 8.23-2.29 13.26-3.66 5.03-1.37 38.83-7.63 42.5-7.47 3.67.16 15.68-4.12 18.59-6.78s-27.72-12.26 27.59-56.14z"/><path class="cls-6" d="M702.17 452.47c-.55-.32-1.05-.79-1.76-.71-9.99-7.14-18.25-16.07-26.2-25.32-4.07-5.01-7.15-10.58-9.4-16.63-.72-1.95-1.2-3.9-1.18-6.01.07-6.63-.16-13.27.77-19.86.83-5.86 1.73-11.72 4.03-17.24 3.53-11.29 9.14-21.39 17.34-29.98 1.73-1.81 3.63-3.47 5.34-5.31 1.01-1.08 2.02-2.36 1.23-3.98-.45-.91-2.92-.87-4.46.22-1.95 1.38-3.95 2.81-5.53 4.57-5.11 5.71-9.7 11.8-13.33 18.61-2.64 4.96-4.37 10.28-6.54 15.42-.02.34.01.7-.08 1.03-2.21 8.22-3.54 16.56-3.47 25.1 0 .79-.22 1.58-.32 2.38-.61 4.84-.27 9.7 1.16 14.26 1.94 6.21 4.5 12.24 8.1 17.74 6.96 7.42 13.78 15.01 22.3 20.74 3.16 2.13 6.39 4.2 10.11 5.28.71.52 1.44.91 2.44.47-.2-.3-.32-.63-.55-.77zm-95.66-56.84c.75-4.96 1.69-9.87 3.64-14.55 3.53-11.29 9.14-21.39 17.34-29.98 1.73-1.81 3.63-3.47 5.34-5.31 1.01-1.08 2.02-2.36 1.23-3.98-.45-.91-2.92-.87-4.46.22-1.95 1.38-3.95 2.81-5.53 4.57-5.11 5.71-9.7 11.8-13.33 18.61-2.65 4.96-4.37 10.28-6.54 15.42-.02.34.01.7-.08 1.03-1.05 3.92-1.9 7.87-2.5 11.86 1.71.3 3.41 1.05 4.89 2.11z"/></svg>